# Blender 4.2.14 LTS
# www.blender.org
mtllib CargoShip.mtl
o Ship
v 2.140223 0.379841 -0.829306
v 2.140223 0.063657 -0.829306
v 2.140223 0.379841 -0.102939
v 2.140223 0.063657 -0.102939
v 0.201787 0.379841 -0.829306
v 0.201787 0.063657 -0.829306
v 0.201787 0.379841 -0.102939
v 0.201787 0.063657 -0.102939
v 2.140223 0.724501 -0.829306
v 2.140223 0.408317 -0.829306
v 2.140223 0.724501 -0.102939
v 2.140223 0.408317 -0.102939
v 0.201787 0.724501 -0.829306
v 0.201787 0.408317 -0.829306
v 0.201787 0.724501 -0.102939
v 0.201787 0.408317 -0.102939
v 2.140223 0.379841 0.014568
v 2.140223 0.063657 0.014568
v 2.140223 0.379841 0.740935
v 2.140223 0.063657 0.740935
v 0.201787 0.379841 0.014568
v 0.201787 0.063657 0.014568
v 0.201787 0.379841 0.740935
v 0.201787 0.063657 0.740935
v 2.140223 0.724501 0.014568
v 2.140223 0.408317 0.014568
v 2.140223 0.724501 0.740935
v 2.140223 0.408317 0.740935
v 0.201787 0.724501 0.014568
v 0.201787 0.408317 0.014568
v 0.201787 0.724501 0.740935
v 0.201787 0.408317 0.740935
v 6.590213 0.379841 0.014568
v 6.590213 0.063657 0.014568
v 6.590213 0.379841 0.740935
v 6.590213 0.063657 0.740935
v 4.651778 0.379841 0.014568
v 4.651778 0.063657 0.014568
v 4.651778 0.379841 0.740935
v 4.651778 0.063657 0.740935
v 6.590213 0.724501 0.014568
v 6.590213 0.408317 0.014568
v 6.590213 0.724501 0.740935
v 6.590213 0.408317 0.740935
v 4.651778 0.724501 0.014568
v 4.651778 0.408317 0.014568
v 4.651778 0.724501 0.740935
v 4.651778 0.408317 0.740935
v 6.590213 0.379841 -0.898084
v 6.590213 0.063657 -0.898084
v 6.590213 0.379841 -0.171717
v 6.590213 0.063657 -0.171717
v 4.651778 0.379841 -0.898084
v 4.651778 0.063657 -0.898084
v 4.651778 0.379841 -0.171717
v 4.651778 0.063657 -0.171717
v 6.590213 0.724501 -0.898084
v 6.590213 0.408317 -0.898084
v 6.590213 0.724501 -0.171717
v 6.590213 0.408317 -0.171717
v 4.651778 0.724501 -0.898084
v 4.651778 0.408317 -0.898084
v 4.651778 0.724501 -0.171717
v 4.651778 0.408317 -0.171717
v 4.305588 0.379841 -0.898084
v 4.305588 0.063657 -0.898084
v 4.305588 0.379841 -0.171717
v 4.305588 0.063657 -0.171717
v 2.367153 0.379841 -0.898084
v 2.367153 0.063657 -0.898084
v 2.367153 0.379841 -0.171717
v 2.367153 0.063657 -0.171717
v 4.305588 0.724501 -0.898084
v 4.305588 0.408317 -0.898084
v 4.305588 0.724501 -0.171717
v 4.305588 0.408317 -0.171717
v 2.367153 0.724501 -0.898084
v 2.367153 0.408317 -0.898084
v 2.367153 0.724501 -0.171717
v 2.367153 0.408317 -0.171717
v 4.305588 0.379841 -0.002115
v 4.305588 0.063657 -0.002115
v 4.305588 0.379841 0.724252
v 4.305588 0.063657 0.724252
v 2.367153 0.379841 -0.002115
v 2.367153 0.063657 -0.002115
v 2.367153 0.379841 0.724252
v 2.367153 0.063657 0.724252
v 4.305588 0.724501 -0.002115
v 4.305588 0.408317 -0.002115
v 4.305588 0.724501 0.724252
v 4.305588 0.408317 0.724252
v 2.367153 0.724501 -0.002115
v 2.367153 0.408317 -0.002115
v 2.367153 0.724501 0.724252
v 2.367153 0.408317 0.724252
v -0.088648 -0.000000 -1.076655
v -0.500666 -0.000000 -0.994699
v -0.849958 -0.000000 -0.761310
v -1.083347 -0.000000 -0.412018
v -1.165303 0.000000 0.000000
v -1.083347 0.000000 0.412018
v -0.849958 0.000000 0.761310
v -0.500666 0.000000 0.994699
v -0.088648 0.000000 1.076655
v 1.741665 -0.000000 -1.076655
v 1.741665 0.000000 1.076655
v 0.665010 0.000000 1.076655
v 0.665010 -0.000000 -1.076655
v 8.201594 -0.000000 -1.076655
v 8.201594 0.000000 1.076655
v -0.444949 -0.000000 -0.860187
v -0.074584 -0.000000 -0.933857
v -0.747007 -0.000000 -0.658359
v -0.948835 -0.000000 -0.356301
v -1.019708 0.000000 0.000000
v -0.948835 0.000000 0.356301
v -0.747007 0.000000 0.658359
v -0.444949 0.000000 0.860187
v -0.074584 0.000000 0.933857
v 1.741665 0.000000 0.933857
v 1.741665 0.000000 0.933857
v 1.741665 -0.000000 -0.933857
v 1.741665 -0.000000 -0.933857
v 0.665010 -0.000000 -0.933857
v 0.665010 0.000000 0.933857
v 8.058797 -0.000000 -0.933857
v 8.058797 0.000000 0.933857
v -0.444949 0.107309 -0.860187
v -0.074584 0.107309 -0.933857
v -0.747007 0.107309 -0.658359
v -0.948835 0.107309 -0.356301
v -1.019708 0.107309 -0.000000
v -0.948835 0.107309 0.356301
v -0.747007 0.107309 0.658359
v -0.444949 0.107309 0.860187
v -0.074584 0.107309 0.933857
v 0.665010 0.107309 -0.933857
v 1.741665 0.107309 -0.933857
v 1.741665 0.107309 0.933857
v 0.665010 0.107309 0.933857
v 1.741665 0.107309 -0.933857
v 8.058797 0.107309 -0.933857
v 1.741665 0.107309 0.933857
v 8.058797 0.107309 0.933857
v -0.500666 0.107309 -0.994699
v -0.088648 0.107309 -1.076655
v -0.849958 0.107309 -0.761310
v -1.083347 0.107309 -0.412018
v -1.165303 0.107309 -0.000000
v -1.083347 0.107309 0.412018
v -0.849958 0.107309 0.761310
v -0.500666 0.107309 0.994699
v -0.088648 0.107309 1.076655
v 0.665010 0.107309 -1.076655
v 1.741665 0.107309 -1.076655
v 1.741665 0.107309 1.076655
v 0.665010 0.107309 1.076655
v 8.201594 0.107309 -1.076655
v 8.201594 0.107309 1.076655
v -0.444949 0.253650 -0.860187
v -0.074584 0.253650 -0.933857
v -0.747007 0.253650 -0.658359
v -0.948835 0.253650 -0.356301
v -1.019708 0.253650 -0.000000
v -0.948835 0.253650 0.356301
v -0.747007 0.253650 0.658359
v -0.444949 0.253650 0.860187
v -0.074584 0.253650 0.933857
v 0.665010 0.253650 -0.933857
v 1.654174 0.253650 -0.928148
v 1.654174 0.253650 0.939566
v 0.665010 0.253650 0.933857
v -0.500666 0.253650 -0.994699
v -0.088648 0.253650 -1.076655
v -0.849958 0.253650 -0.761310
v -1.083347 0.253650 -0.412018
v -1.165303 0.253650 -0.000000
v -1.083347 0.253650 0.412018
v -0.849958 0.253650 0.761310
v -0.500666 0.253650 0.994699
v -0.088648 0.253650 1.076655
v 0.665010 0.253650 -1.076655
v 1.654174 0.253650 -1.070946
v 1.654174 0.253650 1.082364
v 0.665010 0.253650 1.076655
v -0.444949 0.452819 -0.860187
v -0.074584 0.452819 -0.933857
v -0.747007 0.452819 -0.658359
v -0.948835 0.452819 -0.356301
v -1.019708 0.452819 -0.000000
v -0.948835 0.452819 0.356301
v -0.747007 0.452819 0.658359
v -0.444949 0.452819 0.860187
v -0.074584 0.452819 0.933857
v 0.577519 0.452819 0.939566
v 0.577519 0.452819 -0.928148
v -0.500666 0.452819 -0.994699
v -0.088648 0.452819 -1.076655
v -0.849958 0.452819 -0.761310
v -1.083347 0.452819 -0.412018
v -1.165303 0.452819 -0.000000
v -1.083347 0.452819 0.412018
v -0.849958 0.452819 0.761310
v -0.500666 0.452819 0.994699
v -0.088648 0.452819 1.076655
v 0.577519 0.452819 1.082364
v 0.577519 0.452819 -1.070946
v -0.189917 -0.900000 -0.620155
v -0.427240 -0.900000 -0.572948
v -0.628433 -0.900000 -0.438516
v -0.762866 -0.900000 -0.237323
v -0.810072 -0.900000 0.000000
v -0.762866 -0.900000 0.237323
v -0.628433 -0.900000 0.438516
v -0.427240 -0.900000 0.572948
v -0.189917 -0.900000 0.620155
v 1.464346 -0.900000 -0.620155
v 1.464346 -0.900000 -0.620155
v 1.464346 -0.900000 0.620155
v 0.844191 -0.900000 0.620155
v 0.844191 -0.900000 -0.620155
v 1.464346 -0.900000 0.620155
v 7.670141 -0.900000 -0.620155
v 7.670141 -0.900000 0.620155
v -0.189917 -1.500000 -0.620155
v -0.427240 -1.500000 -0.572948
v -0.628433 -1.500000 -0.438516
v -0.762866 -1.500000 -0.237323
v -0.810072 -1.500000 0.000000
v -0.762866 -1.500000 0.237323
v -0.628433 -1.500000 0.438516
v -0.427240 -1.500000 0.572948
v -0.189917 -1.500000 0.620155
v 1.464346 -1.500000 -0.620155
v 1.464346 -1.500000 -0.620155
v 1.464346 -1.500000 0.620155
v 0.844191 -1.500000 0.620155
v 0.844191 -1.500000 -0.620155
v 1.464346 -1.500000 0.620155
v 7.585276 -1.500000 -0.620155
v 7.585276 -1.500000 0.620155
v -0.322596 -1.025140 -0.630381
v -0.348760 -1.305797 -0.632398
v -0.390053 -1.163739 -0.635580
v 0.706909 -1.307405 -0.632296
v 0.730846 -1.022671 -0.630179
v 0.670782 -1.163487 -0.635491
v -0.916015 -1.034846 0.241540
v -0.939175 -1.298771 0.242178
v -0.982284 -1.164524 0.243365
v -0.987903 -1.298140 0.000000
v -0.964934 -1.035610 0.000000
v -1.031111 -1.164563 0.000000
v -0.776653 -1.032573 0.446176
v -0.800432 -1.300580 0.447405
v -0.843228 -1.164388 0.449617
v -0.568056 -1.029009 0.582688
v -0.592947 -1.303208 0.584410
v -0.635155 -1.164114 0.587329
v -0.322596 -1.025140 0.630381
v -0.348760 -1.305797 0.632398
v -0.390053 -1.163739 0.635580
v -0.568056 -1.029009 -0.582688
v -0.592947 -1.303208 -0.584410
v -0.635155 -1.164114 -0.587329
v -0.776653 -1.032573 -0.446176
v -0.800432 -1.300580 -0.447405
v -0.843228 -1.164388 -0.449617
v 0.706909 -1.307405 0.632296
v 0.730846 -1.022671 0.630179
v 0.670782 -1.163487 0.635491
v -0.916015 -1.034846 -0.241540
v -0.939175 -1.298771 -0.242178
v -0.982284 -1.164524 -0.243365
v 1.378707 -1.001677 -0.628464
v 1.348081 -1.321065 -0.631435
v 1.314050 -1.161339 -0.634737
v 7.589440 -1.321069 -0.631435
v 7.622570 -1.001671 -0.628463
v 7.587584 -1.307754 -0.246072
v 7.622570 -1.001671 0.628463
v 7.587255 -1.352277 0.244056
v 7.587584 -1.307754 0.244976
v 1.348081 -1.321065 0.631435
v 1.378707 -1.001677 0.628464
v 1.314050 -1.161339 0.634737
v -0.545691 -0.708716 -0.671526
v -0.565453 -0.142054 -0.934770
v -0.617839 -0.435581 -0.803854
v -0.545691 -0.708716 0.671526
v -0.565453 -0.142054 0.934770
v -0.617839 -0.435581 0.803854
v -0.266275 -0.711824 -0.725121
v -0.179555 -0.144110 -1.010849
v -0.284882 -0.437093 -0.869303
v -0.893138 -0.140229 0.716031
v -0.783938 -0.705669 0.515166
v -0.900664 -0.434154 0.615768
v -0.179555 -0.144110 1.010849
v -0.266275 -0.711824 0.725121
v -0.284882 -0.437093 0.869303
v -0.943822 -0.703547 0.279258
v -1.112448 -0.139279 0.387679
v -1.089950 -0.433254 0.333433
v 0.626324 -0.145485 1.010221
v 0.720589 -0.713877 0.723976
v 0.620393 -0.438097 0.868784
v 1.636222 -0.145932 1.010017
v -1.000094 -0.702797 0.000000
v -1.189518 -0.139022 0.000000
v -1.156473 -0.432959 0.000000
v 1.636222 -0.145932 -1.010017
v 0.626324 -0.145485 -1.010221
v 0.720588 -0.713877 -0.723976
v 0.620393 -0.438097 -0.868784
v -0.893138 -0.140229 -0.716031
v -0.783938 -0.705669 -0.515166
v -0.900664 -0.434154 -0.615768
v -1.112448 -0.139279 -0.387679
v -0.943822 -0.703547 -0.279258
v -1.089950 -0.433254 -0.333433
v 8.178624 -0.149446 -1.008412
v 7.796451 -0.742225 -0.708163
v 8.059432 -0.447561 -0.863622
v 7.796451 -0.742225 0.708163
v 8.178624 -0.149446 1.008412
v 8.059432 -0.447561 0.863622
v 1.447532 -0.741801 -0.708399
v 1.489145 -0.447523 -0.863653
v 1.447532 -0.741801 0.708399
v 1.489146 -0.447523 0.863653
v 7.590660 -1.161338 0.634737
v 7.585991 -1.406750 -0.241718
v 7.585991 -1.406750 0.240621
v 7.589440 -1.321069 0.631435
v 7.587255 -1.352277 -0.245152
v 7.590660 -1.161338 -0.634737
v 7.786122 -1.401481 -0.202456
v 7.786122 -1.401481 0.201360
v 7.787181 -1.355876 0.204235
v 7.787181 -1.355876 -0.205331
v 7.787457 -1.318602 0.205005
v 7.787457 -1.318602 -0.206102
v 8.058797 0.000000 0.000000
v 8.201594 0.000000 0.000000
v 8.058797 0.107309 -0.000000
v 8.201594 0.107309 -0.000000
v 7.670141 -0.900000 0.000000
v 7.585991 -1.406750 -0.000548
v 7.590660 -1.161338 0.000000
v 7.622570 -1.001671 0.000000
v 7.796451 -0.742225 0.000000
v 8.059432 -0.447561 0.000000
v 8.178624 -0.149446 0.000000
v 7.585276 -1.500000 0.000000
v 7.587584 -1.307754 -0.000548
v 7.786122 -1.401481 -0.000548
v 7.787181 -1.355876 -0.000548
v 7.787457 -1.318602 -0.000548
v -0.444949 -0.000000 -0.860187
v -0.074584 -0.000000 -0.933857
v -0.747007 -0.000000 -0.658359
v -0.948835 -0.000000 -0.356301
v -1.019708 0.000000 0.000000
v -0.948835 0.000000 0.356301
v -0.747007 0.000000 0.658359
v -0.444949 0.000000 0.860187
v -0.074584 0.000000 0.933857
v 1.741665 0.000000 0.933857
v 1.741665 0.000000 0.933857
v 1.741665 -0.000000 -0.933857
v 1.741665 -0.000000 -0.933857
v 0.665010 -0.000000 -0.933857
v 0.665010 0.000000 0.933857
v 8.058797 -0.000000 -0.933857
v 8.058797 0.000000 0.933857
v 8.058797 0.000000 0.000000
v -0.444949 -0.000000 -0.860187
v -0.074584 -0.000000 -0.933857
v -0.747007 -0.000000 -0.658359
v -0.948835 -0.000000 -0.356301
v -1.019708 0.000000 0.000000
v -0.948835 0.000000 0.356301
v -0.747007 0.000000 0.658359
v -0.444949 0.000000 0.860187
v -0.074584 0.000000 0.933857
v 1.741665 0.000000 0.933857
v 1.741665 0.000000 0.933857
v 1.741665 -0.000000 -0.933857
v 1.741665 -0.000000 -0.933857
v 0.665010 -0.000000 -0.933857
v 0.665010 0.000000 0.933857
v 8.058797 -0.000000 -0.933857
v 8.058797 0.000000 0.933857
v 8.058797 0.000000 0.000000
v 7.003395 0.010256 0.483839
v 7.003395 0.010256 -0.483839
v 7.628612 0.010256 0.483839
v 7.628612 0.010256 -0.483839
v 6.829997 0.012796 0.750779
v 6.973947 0.647955 0.606828
v 6.829997 0.012796 -0.756270
v 6.973947 0.647955 -0.612319
v 7.803701 0.012796 0.750779
v 7.659750 0.647955 0.606828
v 7.803701 0.012796 -0.756270
v 7.659750 0.647955 -0.612319
v 6.829997 0.647955 0.750779
v 6.829997 0.647955 -0.756270
v 7.803701 0.647955 -0.756270
v 7.803701 0.647955 0.750779
v 6.879216 0.647955 0.701560
v 6.879216 0.647955 -0.707050
v 7.754481 0.647955 -0.707050
v 7.754481 0.647955 0.701560
v 6.969376 0.872267 0.669082
v 6.969376 0.872267 -0.674572
v 7.664321 0.872267 -0.674572
v 7.664321 0.872267 0.669082
v 6.899777 0.872267 0.738680
v 6.899777 0.872267 -0.744171
v 7.733921 0.872267 -0.744171
v 7.733921 0.872267 0.738680
v 7.193483 1.495161 0.142605
v 7.193483 1.495161 -0.105907
v 7.427233 1.495161 -0.105907
v 7.427233 1.495161 0.142605
v 7.013759 1.495161 0.583269
v 7.013759 1.495161 -0.588760
v 7.619939 1.495161 -0.588760
v 7.619939 1.495161 0.583269
v 7.244699 2.179967 0.091389
v 7.244699 2.179967 -0.054691
v 7.376017 2.179967 -0.054691
v 7.376017 2.179967 0.091389
v 7.193483 2.179967 0.142605
v 7.193483 2.179967 -0.105907
v 7.427233 2.179967 -0.105907
v 7.427233 2.179967 0.142605
v 7.271280 2.370016 0.061821
v 7.271280 2.370016 -0.025123
v 7.349437 2.370016 -0.025123
v 7.349437 2.370016 0.061821
v -0.948835 0.000000 0.356301
v -0.948835 0.000000 0.356301
v -0.747007 0.000000 0.658359
v -0.444949 0.000000 0.860187
v -0.074584 0.000000 0.933857
v 1.741665 0.000000 0.933857
v 1.741665 0.000000 0.933857
v 0.665010 0.000000 0.933857
v 8.058797 0.000000 0.933857
v -0.747007 0.000000 0.658359
v -0.444949 0.000000 0.860187
v -0.074584 0.000000 0.933857
v 1.741665 0.000000 0.933857
v 1.741665 0.000000 0.933857
v 0.665010 0.000000 0.933857
v 8.058797 0.000000 0.933857
v -0.948835 0.000000 0.000000
v -0.747007 0.000000 0.000000
v -0.444949 0.000000 0.000000
v -0.074584 0.000000 0.000000
v 1.741665 0.000000 0.000000
v 1.741665 0.000000 0.000000
v 0.665010 0.000000 0.000000
v 8.058797 0.000000 0.000000
v -0.948835 -0.000000 -0.356301
v -0.948835 -0.000000 -0.356301
v -0.747007 -0.000000 -0.658359
v -0.444949 -0.000000 -0.860187
v -0.074584 -0.000000 -0.933857
v 1.741665 -0.000000 -0.933857
v 1.741665 -0.000000 -0.933857
v 0.665010 -0.000000 -0.933857
v 8.058797 -0.000000 -0.933857
v -0.747007 -0.000000 -0.658359
v -0.444949 -0.000000 -0.860187
v -0.074584 -0.000000 -0.933857
v 1.741665 -0.000000 -0.933857
v 1.741665 -0.000000 -0.933857
v 0.665010 -0.000000 -0.933857
v 8.058797 -0.000000 -0.933857
v 7.652357 1.040174 0.645950
v 7.631903 1.327254 0.606401
v 7.631903 1.327254 -0.611892
v 7.652357 1.040174 -0.651441
v 6.981340 1.040174 -0.651441
v 7.001795 1.327254 -0.611892
v 7.001795 1.327254 0.606401
v 6.981340 1.040174 0.645950
v 6.829997 0.012796 0.248429
v 6.829997 0.012796 -0.253920
v 6.829997 0.647955 0.248429
v 6.829997 0.647955 -0.253920
v 7.803701 0.012796 0.248429
v 7.803701 0.012796 -0.253920
v 7.803701 0.647955 -0.253920
v 7.803701 0.647955 0.248429
v 7.659750 0.647955 0.200446
v 7.659750 0.647955 -0.205937
v 7.733921 0.872267 -0.249887
v 7.733921 0.872267 0.244396
v 6.879216 0.647955 0.232023
v 6.879216 0.647955 -0.237513
v 7.754481 0.647955 -0.237513
v 7.754481 0.647955 0.232023
v 6.973947 0.647955 0.200446
v 6.973947 0.647955 -0.205937
v 7.664321 0.872267 -0.226687
v 7.664321 0.872267 0.221197
v 7.619939 1.495161 -0.198084
v 7.619939 1.495161 0.192593
v 6.899777 0.872267 0.244396
v 6.899777 0.872267 -0.249887
v 6.969376 0.872267 0.221197
v 6.969376 0.872267 -0.226687
v 7.013759 1.495161 0.192593
v 7.013759 1.495161 -0.198084
v 7.193483 1.495161 0.059768
v 7.193483 1.495161 -0.023070
v 7.427233 1.495161 -0.023070
v 7.427233 1.495161 0.059768
v 7.427233 2.179967 -0.023070
v 7.427233 2.179967 0.059768
v 7.193483 2.179967 0.059768
v 7.193483 2.179967 -0.023070
v 7.244699 2.179967 0.042695
v 7.244699 2.179967 -0.005998
v 7.376017 2.179967 -0.005998
v 7.376017 2.179967 0.042696
v 7.349437 2.370016 0.003858
v 7.349437 2.370016 0.032839
v 7.271280 2.370016 0.032839
v 7.271280 2.370016 0.003858
v 7.001795 1.327254 0.200303
v 7.001795 1.327254 -0.205794
v 6.981340 1.040174 -0.218977
v 6.981340 1.040174 0.213487
v 7.631903 1.327254 -0.205794
v 7.631903 1.327254 0.200303
v 7.652357 1.040174 0.213487
v 7.652357 1.040174 -0.218977
v 6.998795 1.285142 -0.249991
v 6.998795 1.285142 -0.575078
v 6.984341 1.082286 -0.603024
v 6.984341 1.082286 -0.259306
v 6.998795 1.285142 0.569587
v 6.998795 1.285142 0.244500
v 6.984341 1.082286 0.253816
v 6.984341 1.082286 0.597533
v 6.998795 1.285142 0.159974
v 6.998795 1.285142 -0.165465
v 6.984341 1.082286 -0.174780
v 6.984341 1.082286 0.169290
v 7.024772 1.283291 -0.249991
v 7.024772 1.283291 -0.575078
v 7.010318 1.080435 -0.259306
v 7.010318 1.080435 -0.603024
v 7.024772 1.283291 0.569587
v 7.024772 1.283291 0.244500
v 7.010318 1.080435 0.597533
v 7.010318 1.080435 0.253816
v 7.024772 1.283291 0.159974
v 7.024772 1.283291 -0.165465
v 7.010318 1.080435 0.169290
v 7.010318 1.080435 -0.174780
vn 1.0000 -0.0000 -0.0000
vn -0.0000 -0.0000 -1.0000
vn -1.0000 -0.0000 -0.0000
vn -0.0000 1.0000 -0.0000
vn -0.0000 -1.0000 -0.0000
vn -0.0000 -0.0000 1.0000
vn -0.0000 -0.2125 0.9772
vn -0.0000 0.1460 0.9893
vn -0.0011 -0.0081 1.0000
vn -0.0007 -0.0051 1.0000
vn 0.9784 -0.0000 -0.2065
vn 0.8912 0.1124 0.4394
vn 0.9239 -0.0000 0.3827
vn -0.0000 0.0978 0.9952
vn -0.3150 0.3149 0.8953
vn -0.5178 -0.1818 -0.8359
vn -0.0000 -0.2125 -0.9772
vn 0.0007 0.0051 -1.0000
vn 0.0919 0.3415 -0.9354
vn 0.6788 0.0646 0.7315
vn 0.7071 -0.0000 0.7071
vn 0.1046 0.0038 0.9945
vn 0.6125 0.3536 0.7070
vn 0.0980 -0.0000 0.9952
vn 0.3827 -0.0000 0.9239
vn -0.0000 0.7072 -0.7070
vn 0.0731 0.6674 -0.7411
vn 0.0980 -0.0000 -0.9952
vn -0.0000 0.8993 -0.4373
vn 0.0011 0.0081 -1.0000
vn -0.3522 -0.1209 0.9281
vn -0.0805 -0.1932 0.9778
vn -0.0980 -0.0000 0.9952
vn -0.3827 -0.0000 0.9239
vn 0.7072 -0.0000 0.7070
vn 0.1417 0.2263 0.9637
vn -0.6885 -0.0168 0.7251
vn -0.7071 -0.0000 0.7071
vn -0.9164 0.0596 0.3958
vn -0.9239 -0.0000 0.3827
vn -0.9962 0.0870 -0.0000
vn -0.0028 -0.0203 0.9998
vn -0.0021 -0.0115 0.9999
vn 0.0021 0.0115 -0.9999
vn 0.0028 0.0203 -0.9998
vn -0.3827 -0.0000 -0.9239
vn -0.7071 -0.0000 -0.7071
vn -0.0980 -0.0000 -0.9952
vn -0.0970 0.0038 -0.9953
vn 0.0970 -0.0038 0.9953
vn -0.0990 -0.0038 0.9951
vn 0.3827 -0.0000 -0.9239
vn 0.0990 0.0038 -0.9951
vn 0.7071 -0.0000 -0.7071
vn -0.3149 0.8953 0.3150
vn -0.0770 0.9378 -0.3385
vn -0.0974 0.0096 -0.9952
vn 0.8024 -0.0000 -0.5967
vn 0.9239 -0.0000 -0.3827
vn 0.1950 0.9808 -0.0000
vn -0.9952 0.0974 -0.0096
vn -0.8993 -0.3922 0.1935
vn 0.5437 -0.0000 -0.8393
vn -0.0805 -0.1932 -0.9778
vn -0.3522 -0.1209 -0.9281
vn 0.8993 -0.1935 0.3922
vn 0.2292 -0.0000 -0.9734
vn -0.0000 -0.2027 -0.9792
vn -0.6885 -0.0168 -0.7251
vn -0.0000 -0.2027 0.9792
vn -0.9164 0.0596 -0.3958
vn -0.9239 -0.0000 -0.3827
vn 0.9971 -0.0762 -0.0000
vn 0.9979 -0.0643 -0.0000
vn 0.0960 -0.0077 0.9954
vn -0.0040 -0.0152 0.9999
vn -0.1000 -0.0076 0.9950
vn 0.1001 0.0077 -0.9950
vn 0.9156 0.4022 -0.0000
vn -0.0960 0.0076 -0.9954
vn 0.8583 0.5131 -0.0000
vn 0.9641 0.2604 -0.0521
vn 0.9781 0.1916 -0.0813
vn 0.0040 0.0152 -0.9999
vn 0.0041 0.0152 -0.9999
vn -0.0041 -0.0152 0.9999
vn -0.0000 -0.4728 0.8812
vn 0.0002 -0.4768 0.8790
vn -0.0000 -0.4871 0.8733
vn -0.7117 -0.1054 -0.6945
vn -0.9261 -0.0053 -0.3773
vn -0.0000 -0.4259 -0.9047
vn 0.0001 -0.4255 -0.9050
vn 0.0002 -0.4761 -0.8794
vn 0.0002 -0.4768 -0.8790
vn -0.0000 -0.4871 -0.8733
vn 0.0001 -0.4255 0.9050
vn -0.0000 -0.4259 0.9047
vn 0.0002 -0.4761 0.8794
vn -0.0985 -0.3790 0.9201
vn -0.0921 -0.4908 0.8664
vn -0.0681 -0.5070 0.8593
vn -0.9261 -0.0053 0.3773
vn -0.7117 -0.1054 0.6945
vn -0.3324 -0.5316 0.7791
vn -0.2825 -0.5719 0.7702
vn -0.0000 -0.4243 -0.9055
vn -0.3863 -0.2528 0.8870
vn -0.5862 -0.5675 -0.5782
vn -0.3324 -0.5316 -0.7791
vn -0.2825 -0.5719 -0.7702
vn -0.5259 -0.6412 -0.5588
vn -0.0000 -0.4243 0.9055
vn -0.3863 -0.2528 -0.8870
vn 0.0003 -0.0421 -0.9991
vn 0.0002 -0.0420 -0.9991
vn -0.0000 -0.0629 -0.9980
vn -0.8752 -0.4837 -0.0000
vn -0.8204 -0.4605 -0.3388
vn -0.7084 -0.6284 -0.3215
vn -0.7504 -0.6610 -0.0000
vn 0.0542 0.9985 -0.0000
vn -0.5168 0.6123 0.5983
vn -0.6281 0.7224 0.2892
vn -0.7521 0.5790 0.3147
vn -0.6118 0.4978 0.6147
vn -0.0472 0.1309 0.9903
vn -0.2721 0.3642 0.8907
vn -0.3652 0.3424 0.8657
vn -0.1060 0.1507 0.9829
vn 0.8492 -0.5281 -0.0000
vn 0.8433 -0.5375 -0.0000
vn 0.9514 -0.3080 -0.0000
vn 0.9500 -0.3121 -0.0000
vn -0.0000 0.0814 0.9967
vn 0.0004 0.0595 0.9982
vn -0.2721 0.3642 -0.8907
vn -0.0472 0.1309 -0.9903
vn -0.1060 0.1507 -0.9829
vn -0.3652 0.3424 -0.8657
vn -0.0000 0.0814 -0.9967
vn 0.0002 0.0604 -0.9982
vn 0.0004 0.0595 -0.9982
vn -0.6281 0.7224 -0.2892
vn -0.5168 0.6123 -0.5983
vn -0.6118 0.4978 -0.6147
vn -0.7521 0.5790 -0.3147
vn -0.0000 0.0643 -0.9979
vn 0.0002 0.0604 0.9982
vn -0.6588 0.7523 -0.0000
vn -0.7970 0.6040 -0.0000
vn 0.0003 -0.0421 0.9991
vn -0.1085 -0.1097 0.9880
vn -0.0553 -0.1078 0.9926
vn -0.0000 -0.0629 0.9980
vn -0.6552 -0.3879 -0.6482
vn -0.5665 -0.5172 -0.6416
vn 0.0002 -0.0420 0.9991
vn -0.3821 -0.2586 -0.8872
vn -0.2926 -0.2993 -0.9082
vn -0.1085 -0.1097 -0.9880
vn -0.0553 -0.1078 -0.9926
vn -0.3821 -0.2586 0.8872
vn -0.2926 -0.2993 0.9082
vn -0.6552 -0.3879 0.6482
vn -0.5665 -0.5172 0.6416
vn -0.8204 -0.4605 0.3388
vn -0.7084 -0.6284 0.3215
vn -0.0000 0.0643 0.9979
vn -0.0000 -0.0416 0.9991
vn -0.0000 -0.0416 -0.9991
vn -0.9515 -0.3075 -0.0000
vn -0.8884 -0.2882 -0.3573
vn -0.8381 0.4332 -0.3315
vn -0.8896 0.4568 -0.0000
vn 0.0005 0.0079 1.0000
vn -0.1191 0.0206 0.9927
vn -0.7235 0.0650 -0.6872
vn 0.0007 0.0088 1.0000
vn -0.4162 0.0460 -0.9081
vn 0.0005 0.0079 -1.0000
vn 0.0007 0.0088 -1.0000
vn -0.1191 0.0206 -0.9927
vn -0.4162 0.0461 0.9081
vn -0.7235 0.0650 0.6872
vn -0.8884 -0.2882 0.3573
vn -0.8381 0.4332 0.3315
vn 0.1944 -0.0438 0.9799
vn 0.1938 -0.0662 0.9788
vn 0.1944 -0.0441 0.9799
vn 0.9941 -0.1089 -0.0000
vn 0.9947 -0.1032 0.0020
vn -0.0000 0.0111 0.9999
vn -0.0000 0.0111 -0.9999
vn -0.0921 -0.4908 -0.8664
vn -0.0681 -0.5070 -0.8593
vn -0.0985 -0.3790 -0.9201
vn -0.5862 -0.5675 0.5782
vn -0.5259 -0.6412 0.5588
vn -0.7482 -0.5882 0.3070
vn -0.6719 -0.6810 0.2910
vn -0.9996 0.0296 -0.0000
vn -0.8038 -0.5949 -0.0000
vn -0.7201 -0.6939 -0.0000
vn -0.7482 -0.5882 -0.3070
vn -0.6719 -0.6810 -0.2910
vn 0.9724 -0.2334 -0.0000
vn 0.9647 -0.2633 -0.0000
vn 0.7636 -0.6456 -0.0000
vn 0.7592 -0.6508 -0.0000
vn -0.0000 -0.4728 -0.8812
vn -0.9520 -0.3062 -0.0000
vn -0.8798 -0.3175 -0.3538
vn -0.8798 -0.3175 0.3538
vn -0.0994 -0.4329 -0.8959
vn 0.0002 -0.4504 -0.8928
vn -0.3722 -0.3946 -0.8401
vn -0.6750 -0.3492 -0.6499
vn 0.0002 -0.4514 0.8923
vn 0.0002 -0.4504 0.8928
vn -0.0994 -0.4329 0.8959
vn -0.3722 -0.3946 0.8401
vn -0.6750 -0.3492 0.6499
vn 0.0002 -0.4514 -0.8923
vn -0.0000 -0.4464 0.8949
vn -0.0000 -0.4464 -0.8949
vn 0.8725 -0.4886 -0.0000
vn 0.8502 -0.5265 -0.0000
vn 1.0000 -0.0077 -0.0000
vn 0.9999 -0.0134 -0.0014
vn 0.9998 -0.0207 -0.0032
vn 0.9999 -0.0158 -0.0044
vn 0.9999 -0.0154 -0.0021
vn 0.9947 -0.1032 -0.0020
vn 0.9999 -0.0146 -0.0045
vn 0.9999 -0.0154 0.0021
vn 0.9999 -0.0158 0.0044
vn 0.9999 -0.0146 0.0045
vn 0.9998 -0.0210 -0.0000
vn 0.9999 -0.0134 0.0014
vn 0.9998 -0.0207 0.0032
vn 0.9999 -0.0153 -0.0000
vn 0.9999 -0.0151 -0.0000
vn 0.9997 -0.0232 -0.0000
vn 1.0000 -0.0074 -0.0000
vn 0.1949 -0.0217 0.9806
vn 0.1938 -0.0662 -0.9788
vn 0.1944 -0.0438 -0.9799
vn 0.1944 -0.0441 -0.9799
vn 0.0263 -0.9997 -0.0000
vn 0.1949 -0.0217 -0.9806
vn -0.9952 -0.0000 0.0978
vn 0.1412 0.9899 -0.0093
vn 0.0439 0.9744 0.2206
vn -0.1950 -0.0000 0.9808
vn -0.0096 0.9952 -0.0974
vn -0.9808 -0.1950 -0.0000
vn 0.1477 0.9640 0.2211
vn -0.1951 -0.0000 -0.9808
vn -0.0000 0.7070 -0.7072
vn -0.6125 0.7070 0.3536
vn -1.0000 -0.0000 0.0001
vn 0.1893 0.9737 0.1265
vn -0.5556 -0.0000 -0.8315
vn 0.1718 0.9845 0.0342
vn -0.8315 -0.0000 -0.5556
vn 0.0677 0.7231 -0.6874
vn -0.0062 1.0000 0.0051
vn 0.0770 0.9967 0.0261
vn 0.8315 -0.0000 -0.5556
vn -0.0978 0.9952 -0.0000
vn -0.5000 -0.0000 -0.8660
vn -0.9808 -0.0000 -0.1951
vn 0.9941 -0.0000 -0.1089
vn -0.9325 -0.0000 0.3612
vn 0.5556 -0.0000 -0.8315
vn 0.1951 -0.0000 -0.9808
vn 0.7798 -0.0000 0.6260
vn 0.9600 -0.0000 0.2798
vn 0.9494 -0.3139 -0.0000
vn -0.0000 0.1365 -0.9906
vn -0.9494 -0.3139 -0.0000
vn -0.0000 -0.5067 0.8621
vn -0.0000 -0.5067 -0.8621
vn -0.9975 0.0711 -0.0000
vn 0.9975 0.0711 -0.0000
vn -0.0000 0.1537 0.9881
vn -0.0000 0.1537 -0.9881
vn 0.9904 0.1385 -0.0000
vn -0.9904 0.1385 -0.0000
vn -0.8314 -0.0000 -0.5556
vn -0.5555 -0.0000 -0.8315
vn -0.8315 -0.0000 0.5556
vn -0.8315 -0.0000 0.5555
vn -0.9808 -0.0000 0.1951
vn -0.9808 -0.0000 0.1950
vn -0.5556 -0.0000 0.8315
vn -0.5556 -0.0000 0.8314
vn -0.0000 0.1365 0.9906
vn -0.0711 -0.9975 -0.0000
vn 0.0033 0.0456 -0.9990
vn -0.0033 -0.0456 0.9990
vn 0.0711 0.9975 -0.0000
vn -0.0097 -0.1358 0.9907
vn -0.0097 -0.1358 -0.9907
vn 0.0033 0.0456 0.9990
vn -0.0033 -0.0456 -0.9990
vt 0.667607 0.398793
vt 0.665224 0.398793
vt 0.665224 0.396410
vt 0.667607 0.396410
vt 0.665224 0.394027
vt 0.667607 0.394027
vt 0.665224 0.391644
vt 0.667607 0.391644
vt 0.665224 0.389261
vt 0.667607 0.389261
vt 0.669990 0.394027
vt 0.669990 0.391644
vt 0.662841 0.394027
vt 0.662841 0.391644
vt 0.870675 0.266385
vt 0.881409 0.266385
vt 0.881409 0.277118
vt 0.870675 0.277118
vt 0.881409 0.287852
vt 0.870675 0.287852
vt 0.881409 0.298585
vt 0.870675 0.298585
vt 0.881409 0.309318
vt 0.870675 0.309318
vt 0.859942 0.287852
vt 0.859942 0.298585
vt 0.892142 0.287852
vt 0.892142 0.298585
vt 0.964770 0.259236
vt 0.964740 0.259236
vt 0.964740 0.259206
vt 0.964770 0.259206
vt 0.964740 0.259176
vt 0.964770 0.259176
vt 0.964740 0.259145
vt 0.964770 0.259145
vt 0.964740 0.259115
vt 0.964770 0.259115
vt 0.964710 0.259176
vt 0.964710 0.259145
vt 0.504592 0.163095
vt 0.510803 0.163095
vt 0.510803 0.169306
vt 0.504592 0.169306
vt 0.510803 0.175517
vt 0.504592 0.175517
vt 0.510803 0.181728
vt 0.504592 0.181728
vt 0.510803 0.187940
vt 0.504592 0.187940
vt 0.498380 0.175517
vt 0.498380 0.181728
vt 0.517014 0.175517
vt 0.517014 0.181728
vt 0.979342 0.286197
vt 0.968590 0.286197
vt 0.968590 0.275445
vt 0.979342 0.275445
vt 0.968590 0.264693
vt 0.979342 0.264693
vt 0.968590 0.253942
vt 0.979342 0.253942
vt 0.968590 0.243190
vt 0.979342 0.243190
vt 0.957838 0.264693
vt 0.957838 0.253942
vt 0.821568 0.070083
vt 0.816889 0.070083
vt 0.816889 0.065404
vt 0.821568 0.065404
vt 0.816889 0.060724
vt 0.821568 0.060724
vt 0.816889 0.056045
vt 0.821568 0.056045
vt 0.816889 0.051365
vt 0.821568 0.051365
vt 0.826248 0.060724
vt 0.826248 0.056045
vt 0.812209 0.060724
vt 0.812209 0.056045
vt 0.990093 0.264693
vt 0.990093 0.253942
vt 0.491100 0.348687
vt 0.500636 0.348687
vt 0.500636 0.358223
vt 0.491100 0.358223
vt 0.500636 0.367759
vt 0.491100 0.367759
vt 0.500636 0.377295
vt 0.491100 0.377295
vt 0.500636 0.386830
vt 0.491100 0.386830
vt 0.510172 0.367759
vt 0.510172 0.377295
vt 0.965680 0.259745
vt 0.964881 0.259745
vt 0.964881 0.258945
vt 0.965680 0.258945
vt 0.964881 0.258146
vt 0.965680 0.258146
vt 0.964881 0.257347
vt 0.965680 0.257347
vt 0.964881 0.256547
vt 0.965680 0.256547
vt 0.966479 0.258146
vt 0.966479 0.257347
vt 0.964081 0.258146
vt 0.964081 0.257347
vt 0.972097 0.621774
vt 0.973620 0.621774
vt 0.973620 0.623296
vt 0.972097 0.623296
vt 0.973620 0.624819
vt 0.972097 0.624819
vt 0.973620 0.626341
vt 0.972097 0.626341
vt 0.973620 0.627864
vt 0.972097 0.627864
vt 0.975142 0.624819
vt 0.975142 0.626341
vt 0.917304 0.262056
vt 0.917306 0.264346
vt 0.917271 0.264332
vt 0.917269 0.262042
vt 0.914901 0.263880
vt 0.914899 0.263471
vt 0.914965 0.263471
vt 0.914967 0.263880
vt 0.915180 0.264649
vt 0.915180 0.278084
vt 0.915145 0.278071
vt 0.915145 0.264636
vt 0.916823 0.272493
vt 0.916821 0.274783
vt 0.916786 0.274796
vt 0.916788 0.272506
vt 0.914893 0.263125
vt 0.914959 0.263125
vt 0.916052 0.265103
vt 0.916041 0.266675
vt 0.916006 0.266659
vt 0.916017 0.265086
vt 0.916042 0.263674
vt 0.916052 0.264315
vt 0.916017 0.264299
vt 0.916007 0.263658
vt 0.915325 0.275015
vt 0.915336 0.276588
vt 0.915301 0.276604
vt 0.915291 0.275031
vt 0.914893 0.272266
vt 0.915310 0.272726
vt 0.915275 0.272742
vt 0.917308 0.259576
vt 0.917303 0.260453
vt 0.917268 0.260439
vt 0.917273 0.259562
vt 0.916026 0.268964
vt 0.915991 0.268948
vt 0.917324 0.258830
vt 0.917289 0.258817
vt 0.915936 0.270919
vt 0.916052 0.270891
vt 0.916052 0.271119
vt 0.915936 0.271147
vt 0.915799 0.270928
vt 0.915799 0.271157
vt 0.917223 0.264128
vt 0.917222 0.262024
vt 0.915243 0.275053
vt 0.915229 0.272950
vt 0.916790 0.277277
vt 0.916805 0.278022
vt 0.916757 0.278040
vt 0.916742 0.277294
vt 0.915969 0.264277
vt 0.915960 0.263635
vt 0.916738 0.274814
vt 0.916740 0.272710
vt 0.915944 0.268739
vt 0.915959 0.266636
vt 0.916785 0.276399
vt 0.916737 0.276417
vt 0.915969 0.265064
vt 0.917221 0.260421
vt 0.917226 0.259544
vt 0.915301 0.277391
vt 0.915254 0.277413
vt 0.915254 0.276626
vt 0.917241 0.258799
vt 0.915292 0.278033
vt 0.915244 0.278055
vt 0.917687 0.264311
vt 0.917687 0.277780
vt 0.917640 0.278084
vt 0.917640 0.264311
vt 0.918308 0.277780
vt 0.918308 0.264311
vt 0.918355 0.264311
vt 0.918355 0.278084
vt 0.917998 0.277780
vt 0.917998 0.278084
vt 0.915336 0.259275
vt 0.915336 0.272712
vt 0.915301 0.272726
vt 0.915301 0.259288
vt 0.914899 0.264289
vt 0.914965 0.264289
vt 0.915180 0.262053
vt 0.915180 0.263125
vt 0.915114 0.263125
vt 0.915114 0.262053
vt 0.914845 0.272494
vt 0.914893 0.272494
vt 0.914893 0.272723
vt 0.914845 0.272723
vt 0.914893 0.264636
vt 0.914959 0.264636
vt 0.916820 0.276386
vt 0.916825 0.277264
vt 0.914845 0.274146
vt 0.914892 0.274144
vt 0.914893 0.274372
vt 0.914845 0.274374
vt 0.915336 0.277375
vt 0.915327 0.278017
vt 0.916832 0.258752
vt 0.916797 0.258765
vt 0.916840 0.278009
vt 0.917316 0.278084
vt 0.917281 0.278071
vt 0.915546 0.270891
vt 0.915662 0.270919
vt 0.915662 0.271147
vt 0.915546 0.271119
vt 0.915985 0.273128
vt 0.915985 0.271892
vt 0.916052 0.271892
vt 0.916052 0.273128
vt 0.915904 0.265033
vt 0.915905 0.264246
vt 0.917156 0.261813
vt 0.917156 0.260396
vt 0.915189 0.277443
vt 0.915189 0.276656
vt 0.915546 0.271431
vt 0.915662 0.271459
vt 0.915662 0.271883
vt 0.915546 0.271855
vt 0.914845 0.272725
vt 0.914893 0.273155
vt 0.914845 0.273158
vt 0.916692 0.278064
vt 0.916677 0.277319
vt 0.914845 0.273160
vt 0.914893 0.273158
vt 0.914893 0.273591
vt 0.914845 0.273593
vt 0.915180 0.258873
vt 0.915180 0.260982
vt 0.915132 0.260981
vt 0.915132 0.258872
vt 0.914845 0.278084
vt 0.914845 0.275975
vt 0.914893 0.275975
vt 0.914893 0.278084
vt 0.915049 0.264636
vt 0.915055 0.264289
vt 0.915178 0.264289
vt 0.915172 0.264636
vt 0.916672 0.276441
vt 0.915049 0.263125
vt 0.915055 0.263471
vt 0.914892 0.274692
vt 0.914845 0.274694
vt 0.915057 0.263880
vt 0.915799 0.271468
vt 0.914845 0.273824
vt 0.914893 0.273822
vt 0.914892 0.274142
vt 0.914845 0.274144
vt 0.915936 0.271459
vt 0.916052 0.271431
vt 0.915409 0.275894
vt 0.915384 0.276683
vt 0.915336 0.276653
vt 0.915365 0.275775
vt 0.915477 0.275251
vt 0.915443 0.275031
vt 0.915578 0.274823
vt 0.915560 0.274535
vt 0.915697 0.274673
vt 0.915697 0.274363
vt 0.915815 0.274826
vt 0.915834 0.274540
vt 0.915915 0.275258
vt 0.915949 0.275039
vt 0.915981 0.275903
vt 0.916026 0.275785
vt 0.916004 0.276693
vt 0.916052 0.276664
vt 0.916004 0.278084
vt 0.916052 0.278084
vt 0.915384 0.278074
vt 0.915336 0.278073
vt 0.915799 0.271892
vt 0.916674 0.275024
vt 0.915895 0.263605
vt 0.915936 0.271883
vt 0.915172 0.263125
vt 0.915178 0.263471
vt 0.916052 0.271855
vt 0.915180 0.275269
vt 0.915180 0.263880
vt 0.917161 0.259519
vt 0.917176 0.258774
vt 0.915895 0.266420
vt 0.917583 0.277311
vt 0.917573 0.263809
vt 0.917630 0.263863
vt 0.917640 0.277061
vt 0.915561 0.270597
vt 0.915670 0.270626
vt 0.916874 0.272700
vt 0.916873 0.274849
vt 0.917078 0.274582
vt 0.917089 0.273033
vt 0.917147 0.272979
vt 0.917146 0.274298
vt 0.917356 0.261991
vt 0.917358 0.264139
vt 0.917561 0.262259
vt 0.917629 0.262544
vt 0.917355 0.260277
vt 0.917559 0.260160
vt 0.917628 0.260345
vt 0.915928 0.270626
vt 0.916037 0.270597
vt 0.917561 0.259565
vt 0.917631 0.259840
vt 0.916885 0.258784
vt 0.917359 0.259455
vt 0.917087 0.277786
vt 0.917078 0.277277
vt 0.917147 0.277003
vt 0.917156 0.277432
vt 0.917369 0.278054
vt 0.916875 0.277385
vt 0.916889 0.278084
vt 0.030760 0.096165
vt 0.030775 0.096418
vt 0.030736 0.096491
vt 0.030724 0.096227
vt 0.030602 0.095637
vt 0.030634 0.095649
vt 0.030629 0.095712
vt 0.030600 0.095699
vt 0.975544 0.157490
vt 0.030466 0.095550
vt 0.030531 0.095476
vt 0.030558 0.095561
vt 0.030512 0.095591
vt 0.917373 0.258755
vt 0.030398 0.095758
vt 0.030422 0.095653
vt 0.030469 0.095648
vt 0.030435 0.095729
vt 0.030531 0.099077
vt 0.030297 0.098895
vt 0.030321 0.098835
vt 0.030533 0.098994
vt 0.030325 0.096155
vt 0.030358 0.096123
vt 0.030779 0.095689
vt 0.030797 0.095795
vt 0.030763 0.095761
vt 0.030733 0.095676
vt 0.030851 0.096191
vt 0.030869 0.096454
vt 0.030843 0.096423
vt 0.030820 0.096155
vt 0.030683 0.095494
vt 0.030741 0.095581
vt 0.030694 0.095611
vt 0.030650 0.095571
vt 0.030863 0.096458
vt 0.030772 0.098926
vt 0.030751 0.098864
vt 0.030297 0.096418
vt 0.030324 0.096390
vt 0.030608 0.095450
vt 0.030605 0.095555
vt 0.030419 0.096143
vt 0.030486 0.095774
vt 0.030508 0.095843
vt 0.030452 0.096213
vt 0.030664 0.095680
vt 0.030655 0.095747
vt 0.030393 0.096395
vt 0.030429 0.096472
vt 0.030691 0.095730
vt 0.030676 0.095797
vt 0.030711 0.095797
vt 0.030686 0.095863
vt 0.030509 0.095711
vt 0.030521 0.095779
vt 0.030538 0.095666
vt 0.030543 0.095733
vt 0.030570 0.095642
vt 0.030570 0.095705
vt 0.030303 0.096423
vt 0.030390 0.098703
vt 0.030428 0.096472
vt 0.030433 0.098660
vt 0.030687 0.098723
vt 0.030646 0.098674
vt 0.030736 0.096491
vt 0.030603 0.095601
vt 0.030638 0.095612
vt 0.030391 0.096115
vt 0.030466 0.095736
vt 0.030673 0.095643
vt 0.030359 0.096373
vt 0.030705 0.095693
vt 0.030788 0.096142
vt 0.030809 0.096400
vt 0.030732 0.095763
vt 0.030497 0.095671
vt 0.030532 0.095627
vt 0.030568 0.095604
vt 0.030535 0.098894
vt 0.030719 0.098786
vt 0.030356 0.098761
vt 0.917075 0.276682
vt 0.917144 0.276498
vt 0.916871 0.276563
vt 0.917571 0.259056
vt 0.917640 0.259410
vt 0.914813 0.275770
vt 0.914813 0.275335
vt 0.914893 0.275607
vt 0.914892 0.275975
vt 0.915799 0.270635
vt 0.915892 0.269404
vt 0.915799 0.269413
vt 0.915799 0.268970
vt 0.915878 0.268964
vt 0.915706 0.269404
vt 0.915720 0.268964
vt 0.914813 0.274899
vt 0.914892 0.274694
vt 0.914893 0.275062
vt 0.915985 0.274363
vt 0.915894 0.274285
vt 0.915894 0.273128
vt 0.915539 0.273128
vt 0.915539 0.273940
vt 0.915445 0.273839
vt 0.915445 0.273128
vt 0.917098 0.259528
vt 0.917156 0.259778
vt 0.915799 0.270006
vt 0.915688 0.269997
vt 0.915910 0.269997
vt 0.916976 0.276753
vt 0.916978 0.274827
vt 0.916980 0.277462
vt 0.915628 0.269381
vt 0.915594 0.269973
vt 0.917466 0.263862
vt 0.917461 0.262013
vt 0.917460 0.260088
vt 0.917463 0.259379
vt 0.917475 0.258775
vt 0.916991 0.278066
vt 0.915970 0.269381
vt 0.916003 0.269973
vt 0.916983 0.272978
vt 0.917476 0.277836
vt 0.916992 0.259003
vt 0.915539 0.272315
vt 0.915713 0.272137
vt 0.915713 0.273128
vt 0.915894 0.271971
vt 0.030538 0.098760
vt 0.030485 0.098734
vt 0.030538 0.098725
vt 0.030480 0.098757
vt 0.030476 0.098776
vt 0.030598 0.098784
vt 0.030595 0.098764
vt 0.030537 0.098805
vt 0.030591 0.098741
vt 0.915713 0.274118
vt 0.915445 0.272416
vt 0.916052 0.274363
vt 0.915114 0.260982
vt 0.125000 0.500000
vt 0.375000 0.500000
vt 0.375000 0.750000
vt 0.125000 0.750000
vt 0.911125 0.592191
vt 0.918419 0.592191
vt 0.918419 0.594623
vt 0.911125 0.594623
vt 0.918419 0.601917
vt 0.911125 0.601917
vt 0.911125 0.606780
vt 0.918419 0.606780
vt 0.918419 0.609212
vt 0.911125 0.609212
vt 0.918419 0.616506
vt 0.911125 0.616506
vt 0.919498 0.604581
vt 0.919498 0.602614
vt 0.925345 0.604428
vt 0.925345 0.602156
vt 0.925714 0.601917
vt 0.925714 0.604349
vt 0.918788 0.602156
vt 0.918788 0.606701
vt 0.918788 0.608974
vt 0.925345 0.608974
vt 0.925714 0.609212
vt 0.924635 0.604581
vt 0.924635 0.602614
vt 0.919498 0.606548
vt 0.919498 0.608515
vt 0.924635 0.608515
vt 0.919926 0.602891
vt 0.924207 0.602891
vt 0.924207 0.602891
vt 0.919926 0.602891
vt 0.924635 0.606548
vt 0.924635 0.606548
vt 0.924207 0.604674
vt 0.924635 0.604581
vt 0.919926 0.606456
vt 0.919926 0.608238
vt 0.919498 0.606548
vt 0.924207 0.608238
vt 0.914634 0.503429
vt 0.904616 0.503429
vt 0.924207 0.606456
vt 0.924207 0.608238
vt 0.919926 0.604674
vt 0.919926 0.602891
vt 0.919926 0.604673
vt 0.985938 0.607115
vt 0.985938 0.599708
vt 0.988375 0.598134
vt 0.988375 0.606591
vt 0.970503 0.599708
vt 0.968066 0.598134
vt 0.970503 0.614523
vt 0.970503 0.621930
vt 0.968066 0.623504
vt 0.968066 0.615047
vt 0.985938 0.621930
vt 0.988375 0.623504
vt 0.824210 0.260262
vt 0.832808 0.260262
vt 0.904616 0.489008
vt 0.914634 0.489008
vt 0.904616 0.493815
vt 0.914634 0.498622
vt 0.934956 0.475148
vt 0.934956 0.477238
vt 0.933332 0.479437
vt 0.933332 0.475881
vt 0.939118 0.477238
vt 0.940742 0.479437
vt 0.939118 0.473058
vt 0.939118 0.470968
vt 0.940742 0.468770
vt 0.940742 0.472326
vt 0.934956 0.470968
vt 0.933332 0.468770
vt 0.832808 0.264579
vt 0.824210 0.264579
vt 0.832808 0.273213
vt 0.824210 0.273213
vt 0.832808 0.268896
vt 0.916672 0.184996
vt 0.916672 0.198464
vt 0.916362 0.198464
vt 0.916362 0.184996
vt 0.916581 0.184565
vt 0.916480 0.184996
vt 0.916362 0.184565
vt 0.916672 0.179259
vt 0.916672 0.181555
vt 0.916362 0.181555
vt 0.916362 0.179259
vt 0.916648 0.183921
vt 0.916362 0.183921
vt 0.916672 0.183132
vt 0.916362 0.183132
vt 0.916052 0.184996
vt 0.916052 0.198464
vt 0.916143 0.184565
vt 0.916244 0.184996
vt 0.916052 0.179259
vt 0.916052 0.181555
vt 0.916076 0.183921
vt 0.916052 0.183132
vt 0.924207 0.608238
vt 0.919926 0.608238
vt 0.924207 0.608055
vt 0.924207 0.606639
vt 0.919926 0.606456
vt 0.924206 0.604496
vt 0.924207 0.604491
vt 0.924207 0.604856
vt 0.924207 0.604850
vt 0.919926 0.606456
vt 0.924207 0.604673
vt 0.824210 0.268896
vt 0.939118 0.475148
vt 0.940742 0.475881
vt 0.934956 0.473058
vt 0.933332 0.472326
vt 0.914634 0.493815
vt 0.904616 0.498622
vt 0.970503 0.607115
vt 0.968066 0.606591
vt 0.985938 0.614523
vt 0.988375 0.615047
vt 0.924207 0.604673
vt 0.924207 0.602891
vt 0.918788 0.604428
vt 0.925345 0.606701
vt 0.918419 0.604349
vt 0.925714 0.606780
vt 0.911125 0.604349
vt 0.911125 0.587328
vt 0.918419 0.587328
vt 0.918419 0.589760
vt 0.911125 0.589760
vt 0.924207 0.603075
vt 0.924207 0.603069
vt 0.924207 0.606633
vt 0.924207 0.608060
vt 0.924207 0.606273
vt 0.924207 0.606279
vt 0.971027 0.285763
vt 0.976113 0.286196
vt 0.976405 0.306653
vt 0.971027 0.306195
vt 0.970736 0.306220
vt 0.965650 0.306653
vt 0.965650 0.286221
vt 0.981644 0.306189
vt 0.976551 0.306189
vt 0.976405 0.285763
vt 0.981790 0.285763
s 1
usemtl Material.001
f 2/1/1 1/2/1 3/3/1 4/4/1
f 6/4/2 5/3/2 1/5/2 2/6/2
f 8/6/3 7/5/3 5/7/3 6/8/3
f 1/8/4 5/7/4 7/9/4 3/10/4
f 6/11/5 2/6/5 4/8/5 8/12/5
f 4/5/6 3/13/6 7/14/6 8/7/6
f 10/15/1 9/16/1 11/17/1 12/18/1
f 14/18/2 13/17/2 9/19/2 10/20/2
f 16/20/3 15/19/3 13/21/3 14/22/3
f 9/22/4 13/21/4 15/23/4 11/24/4
f 14/25/5 10/20/5 12/22/5 16/26/5
f 12/19/6 11/27/6 15/28/6 16/21/6
f 18/29/1 17/30/1 19/31/1 20/32/1
f 22/32/2 21/31/2 17/33/2 18/34/2
f 24/34/3 23/33/3 21/35/3 22/36/3
f 17/36/4 21/35/4 23/37/4 19/38/4
f 20/33/6 19/39/6 23/40/6 24/35/6
f 26/41/1 25/42/1 27/43/1 28/44/1
f 30/44/2 29/43/2 25/45/2 26/46/2
f 32/46/3 31/45/3 29/47/3 30/48/3
f 25/48/4 29/47/4 31/49/4 27/50/4
f 30/51/5 26/46/5 28/48/5 32/52/5
f 28/45/6 27/53/6 31/54/6 32/47/6
f 34/55/1 33/56/1 35/57/1 36/58/1
f 38/58/2 37/57/2 33/59/2 34/60/2
f 40/60/3 39/59/3 37/61/3 38/62/3
f 33/62/4 37/61/4 39/63/4 35/64/4
f 36/59/6 35/65/6 39/66/6 40/61/6
f 42/67/1 41/68/1 43/69/1 44/70/1
f 46/70/2 45/69/2 41/71/2 42/72/2
f 48/72/3 47/71/3 45/73/3 46/74/3
f 41/74/4 45/73/4 47/75/4 43/76/4
f 46/77/5 42/72/5 44/74/5 48/78/5
f 44/71/6 43/79/6 47/80/6 48/73/6
f 50/15/1 49/16/1 51/17/1 52/18/1
f 54/18/2 53/17/2 49/19/2 50/20/2
f 56/20/3 55/19/3 53/21/3 54/22/3
f 49/22/4 53/21/4 55/23/4 51/24/4
f 52/19/6 51/27/6 55/28/6 56/21/6
f 58/55/1 57/56/1 59/57/1 60/58/1
f 62/58/2 61/57/2 57/59/2 58/60/2
f 64/60/3 63/59/3 61/61/3 62/62/3
f 57/62/4 61/61/4 63/63/4 59/64/4
f 62/81/5 58/60/5 60/62/5 64/82/5
f 60/59/6 59/65/6 63/66/6 64/61/6
f 66/83/1 65/84/1 67/85/1 68/86/1
f 70/86/2 69/85/2 65/87/2 66/88/2
f 72/88/3 71/87/3 69/89/3 70/90/3
f 65/90/4 69/89/4 71/91/4 67/92/4
f 68/87/6 67/93/6 71/94/6 72/89/6
f 74/95/1 73/96/1 75/97/1 76/98/1
f 78/98/2 77/97/2 73/99/2 74/100/2
f 80/100/3 79/99/3 77/101/3 78/102/3
f 73/102/4 77/101/4 79/103/4 75/104/4
f 78/105/5 74/100/5 76/102/5 80/106/5
f 76/99/6 75/107/6 79/108/6 80/101/6
f 82/109/1 81/110/1 83/111/1 84/112/1
f 86/112/2 85/111/2 81/113/2 82/114/2
f 88/114/3 87/113/3 85/115/3 86/116/3
f 81/116/4 85/115/4 87/117/4 83/118/4
f 84/113/6 83/119/6 87/120/6 88/115/6
f 90/15/1 89/16/1 91/17/1 92/18/1
f 94/18/2 93/17/2 89/19/2 90/20/2
f 96/20/3 95/19/3 93/21/3 94/22/3
f 89/22/4 93/21/4 95/23/4 91/24/4
f 94/25/5 90/20/5 92/22/5 96/26/5
f 92/19/6 91/27/6 95/28/6 96/21/6
f 108/121/7 107/122/8 157/123/9 158/124/10
f 116/125/11 115/126/12 132/127/13 133/128/1
f 124/129/6 127/130/14 143/131/6 142/132/15
f 106/133/16 109/134/17 155/135/18 156/136/19
f 115/126/12 114/137/20 131/138/21 132/127/13
f 113/139/22 125/140/23 138/141/10 130/142/24
f 114/143/20 112/144/25 129/145/25 131/146/21
f 126/147/26 120/148/27 137/149/28 141/150/18
f 122/151/4 121/151/4 107/151/29
f 112/144/25 113/139/22 130/142/24 129/145/25
f 121/152/2 126/147/26 141/150/18 140/153/30
f 104/154/31 105/155/32 154/156/33 153/157/34
f 125/140/23 123/158/35 139/159/36 138/141/10
f 103/160/37 104/154/31 153/157/34 152/161/38
f 102/162/39 103/163/37 152/164/38 151/165/40
f 101/166/41 102/162/39 151/165/40 150/167/3
f 158/124/10 157/123/9 185/168/42 186/169/43
f 140/153/30 141/150/18 173/170/44 172/171/45
f 146/172/46 148/173/47 176/174/47 174/175/46
f 131/146/21 129/145/25 161/176/25 163/177/21
f 156/136/19 155/135/18 183/178/44 184/179/45
f 138/141/10 139/159/36 171/180/42 170/181/43
f 147/182/48 146/172/46 174/175/46 175/183/49
f 129/145/25 130/142/24 162/184/50 161/176/25
f 153/157/34 154/156/33 182/185/51 181/186/34
f 137/149/28 136/187/52 168/188/52 169/189/53
f 152/161/38 153/157/34 181/186/34 180/190/38
f 136/187/52 135/191/54 167/192/54 168/188/52
f 142/193/55 143/194/4 159/195/4 156/196/56
f 145/197/4 144/198/4 157/199/4 160/200/4
f 347/201/4 145/197/4 160/200/4 348/202/4
f 128/203/57 122/204/2 144/205/2 145/206/2
f 117/207/58 116/125/11 133/128/1 134/208/59
f 105/155/32 108/121/7 158/124/10 154/156/33
f 345/209/60 128/210/61 145/211/3 347/212/3
f 122/213/3 107/214/62 157/215/3 144/216/3
f 118/217/63 117/207/58 134/208/59 135/218/54
f 109/134/17 97/219/64 147/182/48 155/135/18
f 97/219/64 98/220/65 146/172/46 147/182/48
f 107/221/66 121/222/1 140/223/1 157/224/1
f 119/225/67 118/226/63 135/191/54 136/187/52
f 110/227/68 106/133/16 156/136/19 159/228/2
f 98/220/65 99/229/69 148/173/47 146/172/46
f 120/148/27 119/225/67 136/187/52 137/149/28
f 107/122/8 111/230/70 160/231/6 157/123/6
f 99/232/69 100/233/71 149/234/72 148/235/47
f 346/236/73 110/237/74 159/238/1 348/239/1
f 100/233/71 101/166/41 150/167/3 149/234/72
f 161/176/25 162/184/50 188/240/75 187/241/25
f 182/185/51 186/169/43 207/242/76 206/243/77
f 169/189/53 168/188/52 194/244/52 195/245/78
f 176/246/47 177/247/72 201/248/72 200/249/47
f 186/250/79 173/215/79 196/251/79 207/252/79
f 168/188/52 167/192/54 193/130/54 194/244/52
f 174/175/46 176/174/47 200/253/47 198/254/46
f 170/255/79 183/256/79 208/257/79 197/258/79
f 170/259/4 171/260/4 184/261/4 183/262/4
f 172/263/4 173/264/4 186/265/4 185/266/4
f 167/267/54 166/268/59 192/269/59 193/270/54
f 175/183/49 174/175/46 198/254/46 199/271/80
f 132/127/13 131/138/21 163/272/21 164/273/13
f 148/235/47 149/234/72 177/247/72 176/246/47
f 141/150/18 137/149/28 169/189/53 173/170/44
f 154/156/33 158/124/10 186/169/43 182/185/51
f 157/224/81 140/223/81 172/274/81 185/275/81
f 133/128/1 132/127/13 164/273/13 165/276/1
f 149/234/72 150/167/3 178/277/3 177/247/72
f 130/142/24 138/141/10 170/181/43 162/184/50
f 155/135/18 147/182/48 175/183/49 183/178/44
f 139/278/82 156/279/83 184/280/81 171/281/81
f 134/208/59 133/128/1 165/276/1 166/268/59
f 150/167/3 151/165/40 179/282/40 178/277/3
f 135/218/54 134/208/59 166/268/59 167/267/54
f 151/165/40 152/164/38 180/283/38 179/282/40
f 187/284/4 188/285/4 199/286/4 198/287/4
f 189/288/4 187/284/4 198/287/4 200/289/4
f 190/290/4 189/288/4 200/289/4 201/291/4
f 191/292/4 190/290/4 201/291/4 202/293/4
f 192/294/4 191/292/4 202/293/4 203/295/4
f 193/296/4 192/294/4 203/295/4 204/297/4
f 194/298/4 193/296/4 204/297/4 205/299/4
f 195/300/4 194/298/4 205/299/4 206/301/4
f 196/302/4 195/300/4 206/301/4 207/303/4
f 188/285/4 197/304/4 208/305/4 199/286/4
f 177/247/72 178/277/3 202/306/3 201/248/72
f 183/178/44 175/183/49 199/271/80 208/307/84
f 163/177/21 161/176/25 187/241/25 189/308/21
f 178/277/3 179/282/40 203/309/40 202/306/3
f 164/273/13 163/272/21 189/310/21 190/311/13
f 179/282/40 180/283/38 204/312/38 203/309/40
f 173/170/44 169/189/53 195/245/78 196/313/85
f 165/276/1 164/273/13 190/311/13 191/314/1
f 180/190/38 181/186/34 205/315/34 204/316/38
f 162/184/50 170/181/43 197/317/86 188/240/75
f 166/268/59 165/276/1 191/314/1 192/269/59
f 181/186/34 182/185/51 206/243/77 205/315/34
f 326/318/87 331/319/88 223/320/89 225/321/89
f 100/233/71 99/232/69 317/322/90 320/323/91
f 109/134/17 106/133/16 313/324/92 314/325/93
f 315/326/94 329/327/95 219/328/96 222/329/96
f 107/122/8 108/121/7 306/330/97 309/331/98
f 331/319/88 307/332/99 221/333/89 220/320/89
f 108/121/7 105/155/32 300/334/100 306/330/97
f 307/332/99 301/335/101 217/336/102 221/333/89
f 103/163/37 102/162/39 304/337/103 297/338/104
f 301/335/101 291/339/105 216/340/106 217/336/102
f 106/133/16 110/227/68 323/341/107 313/324/92
f 105/155/32 104/154/31 292/342/108 300/334/100
f 318/343/109 288/344/110 210/345/111 211/346/112
f 111/230/70 107/122/8 309/331/98 327/347/113
f 99/229/69 98/220/65 289/348/114 317/349/90
f 246/350/115 277/351/116 236/352/117 239/353/117
f 252/354/118 274/355/119 229/356/120 230/357/121
f 357/358/122 284/358/122 343/358/122 360/358/122
f 215/359/123 214/360/124 249/361/125 255/362/126
f 104/154/31 103/160/37 297/363/104 292/342/108
f 217/364/127 216/365/128 258/366/129 261/367/130
f 349/368/131 225/369/132 282/370/133 352/371/134
f 221/372/135 217/364/127 261/367/130 271/373/136
f 210/374/137 209/375/138 243/376/139 264/377/140
f 222/378/141 219/379/141 276/380/142 247/381/143
f 212/382/144 211/383/145 267/384/146 273/385/147
f 218/386/141 224/387/141 280/388/148 276/380/142
f 220/389/135 221/372/135 271/373/136 286/390/149
f 211/383/145 210/374/137 264/377/140 267/384/146
f 213/391/150 212/382/144 273/385/147 253/392/151
f 216/365/128 215/359/123 255/362/126 258/366/129
f 270/393/152 262/394/153 234/395/154 238/396/155
f 274/355/119 268/397/156 228/398/157 229/356/120
f 285/399/158 270/393/152 238/396/155 237/400/155
f 268/397/156 265/401/159 227/402/160 228/398/157
f 214/360/124 213/391/150 253/392/151 249/361/125
f 244/403/161 246/350/115 239/353/117 226/404/162
f 262/394/153 259/405/163 233/406/164 234/395/154
f 259/405/163 256/407/165 232/408/166 233/406/164
f 250/409/167 252/354/118 230/357/121 231/410/168
f 256/407/165 250/409/167 231/410/168 232/408/166
f 265/401/159 244/403/161 226/404/162 227/402/160
f 225/369/135 223/411/135 286/390/149 282/370/169
f 336/412/170 285/399/158 240/413/155 242/414/155
f 277/351/116 279/415/171 241/416/117 235/417/117
f 274/355/119 252/354/118 254/418/172 275/419/173
f 275/419/174 254/418/175 253/392/151 273/385/147
f 262/394/153 270/393/152 272/420/176 263/421/177
f 263/421/177 272/420/176 271/373/136 261/367/130
f 268/397/156 274/355/119 275/419/173 269/422/178
f 269/422/178 275/419/174 273/385/147 267/384/146
f 270/393/152 285/399/158 287/423/179 272/420/176
f 272/420/176 287/423/179 286/390/149 271/373/136
f 265/401/159 268/397/156 269/422/178 266/424/180
f 266/424/180 269/422/178 267/384/146 264/377/140
f 277/351/116 246/350/115 248/425/181 278/426/182
f 278/426/182 248/425/181 247/381/143 276/380/142
f 244/403/161 265/401/159 266/424/180 245/427/183
f 245/427/183 266/424/180 264/377/140 243/376/139
f 259/405/163 262/394/153 263/421/177 260/428/184
f 260/428/184 263/421/177 261/367/130 258/366/129
f 256/407/165 259/405/163 260/428/184 257/429/185
f 257/429/185 260/428/184 258/366/129 255/362/126
f 250/409/167 256/407/165 257/429/185 251/430/186
f 251/430/187 257/429/185 255/362/126 249/361/125
f 252/354/118 250/409/167 251/430/186 254/418/172
f 254/418/175 251/430/187 249/361/125 253/392/151
f 246/350/115 244/403/161 245/427/183 248/425/181
f 248/425/181 245/427/183 243/376/139 247/381/143
f 283/358/188 335/358/189 340/358/189 341/358/190
f 351/431/191 338/432/192 280/388/133 352/371/134
f 285/399/158 336/412/170 333/433/193 287/423/179
f 287/423/179 333/433/193 282/370/169 286/390/149
f 279/415/171 277/351/116 278/426/182 338/432/194
f 338/432/194 278/426/182 276/380/142 280/388/148
f 209/375/138 222/378/141 247/381/143 243/376/139
f 288/344/110 294/434/195 209/435/196 210/345/111
f 97/219/64 109/134/17 314/325/93 295/436/197
f 291/339/105 298/437/198 215/438/199 216/340/106
f 294/434/195 315/326/94 222/329/96 209/435/196
f 298/439/198 303/440/200 214/441/201 215/442/199
f 102/162/39 101/166/41 311/443/202 304/337/103
f 303/444/200 310/445/203 213/446/204 214/447/201
f 101/166/41 100/233/71 320/323/91 311/443/202
f 310/445/203 321/448/205 212/449/206 213/446/204
f 321/440/205 318/450/109 211/451/112 212/452/206
f 346/236/73 111/453/74 327/454/207 355/455/208
f 353/456/209 326/457/210 225/458/132 349/459/131
f 329/327/95 324/460/211 224/461/96 218/328/96
f 321/448/205 310/445/203 312/462/212 322/463/213
f 322/463/213 312/462/212 311/443/202 320/323/91
f 310/445/203 303/444/200 305/464/214 312/462/212
f 312/462/212 305/464/214 304/337/103 311/443/202
f 315/326/94 294/434/195 296/465/215 316/466/216
f 316/466/216 296/465/215 295/436/197 314/325/93
f 294/434/195 288/344/110 290/467/217 296/465/215
f 296/465/215 290/467/217 289/348/114 295/436/197
f 318/468/109 321/448/205 322/463/213 319/469/218
f 319/469/218 322/463/213 320/323/91 317/322/90
f 307/332/99 331/319/88 332/470/219 308/471/220
f 308/471/220 332/470/219 309/331/98 306/330/97
f 301/335/101 307/332/99 308/471/220 302/472/221
f 302/472/221 308/471/220 306/330/97 300/334/100
f 298/437/198 291/339/105 293/473/222 299/474/223
f 299/474/223 293/473/222 292/342/108 297/363/104
f 288/344/110 318/343/109 319/475/218 290/467/217
f 290/467/217 319/475/218 317/349/90 289/348/114
f 303/444/200 298/476/198 299/477/223 305/464/214
f 305/464/214 299/477/223 297/338/104 304/337/103
f 291/339/105 301/335/101 302/472/221 293/473/222
f 293/473/222 302/472/221 300/334/100 292/342/108
f 329/327/95 315/326/94 316/466/216 330/478/224
f 330/478/224 316/466/216 314/325/93 313/324/92
f 331/319/88 326/318/87 328/479/225 332/470/219
f 332/470/219 328/479/225 327/347/113 309/331/98
f 324/460/211 329/327/95 330/478/224 325/480/226
f 325/480/226 330/478/224 313/324/92 323/341/107
f 353/456/209 324/481/210 325/482/227 354/483/228
f 354/483/228 325/482/227 323/484/207 355/455/208
f 98/220/65 97/219/64 295/436/197 289/348/114
f 350/485/229 335/486/230 242/414/231 356/487/229
f 283/488/232 284/489/233 333/433/234 336/412/235
f 281/490/236 337/491/237 279/415/238 338/432/192
f 357/492/239 281/490/236 338/432/192 351/431/191
f 337/491/237 334/493/240 241/416/241 279/415/238
f 335/486/230 283/488/232 336/412/235 242/414/231
f 359/358/242 341/358/243 340/358/244 358/358/244
f 359/358/242 342/358/243 344/358/245 360/358/245
f 284/358/246 283/358/188 341/358/190 343/358/246
f 334/358/247 337/358/248 342/358/249 339/358/247
f 350/358/250 334/358/250 339/358/250 358/358/250
f 337/358/248 281/358/251 344/358/251 342/358/249
f 335/358/250 350/358/250 358/358/250 340/358/250
f 341/358/243 359/358/242 360/358/245 343/358/245
f 342/358/243 359/358/242 358/358/244 339/358/244
f 284/489/233 357/492/239 351/431/191 333/433/234
f 334/493/240 350/485/229 356/487/229 241/416/241
f 328/494/227 354/483/228 355/455/208 327/454/207
f 326/457/210 353/456/209 354/483/228 328/494/227
f 324/481/210 353/456/209 349/459/131 224/495/132
f 110/237/74 346/236/73 355/455/208 323/484/207
f 333/433/234 351/431/191 352/371/134 282/370/133
f 224/387/132 349/368/131 352/371/134 280/388/133
f 281/358/122 357/358/122 360/358/122 344/358/122
f 111/453/74 346/236/73 348/239/1 160/496/1
f 127/260/252 345/209/60 347/212/3 143/497/3
f 143/194/4 347/201/4 348/202/4 159/195/4
f 115/151/253 116/151/254 365/151/255 364/151/4
f 128/151/256 345/151/257 378/151/6 377/151/4
f 116/151/254 117/151/258 366/151/259 365/151/255
f 123/151/260 125/151/261 374/151/262 372/151/4
f 117/151/258 118/151/263 367/151/264 366/151/259
f 126/151/260 121/151/4 370/151/4 375/151/4
f 118/151/263 119/151/265 368/151/266 367/151/264
f 120/151/267 126/151/260 375/151/4 369/151/4
f 119/151/265 120/151/267 369/151/4 368/151/266
f 113/151/268 112/151/4 361/151/4 362/151/4
f 125/151/261 113/151/268 362/151/4 374/151/262
f 112/151/4 114/151/269 363/151/270 361/151/4
f 345/151/257 127/151/271 376/151/6 378/151/6
f 127/151/271 124/151/4 373/151/4 376/151/6
f 114/151/269 115/151/253 364/151/4 363/151/270
f 122/151/4 128/151/256 377/151/4 371/151/4
f 377/151/4 378/151/6 396/151/2 395/151/272
f 368/151/266 369/151/4 387/151/273 386/151/274
f 362/151/4 361/151/4 379/151/4 380/151/275
f 378/151/6 376/151/6 394/151/6 396/151/2
f 372/151/4 374/151/262 392/151/3 390/151/4
f 361/151/4 363/151/270 381/151/270 379/151/4
f 375/151/4 370/151/4 388/151/3 393/151/3
f 363/151/270 364/151/4 382/151/276 381/151/270
f 369/151/4 375/151/4 393/151/3 387/151/273
f 364/151/4 365/151/255 383/151/277 382/151/276
f 374/151/262 362/151/4 380/151/275 392/151/3
f 365/151/255 366/151/259 384/151/278 383/151/277
f 376/151/6 373/151/4 391/151/3 394/151/6
f 366/151/259 367/151/264 385/151/279 384/151/278
f 371/151/4 377/151/4 395/151/272 389/151/4
f 367/151/264 368/151/266 386/151/274 385/151/279
f 227/402/5 226/404/5 239/353/5 236/352/5 235/417/5 241/416/5 356/487/5 242/414/5 240/413/5 237/400/5 238/396/5 234/395/5 233/406/5 232/408/5 231/410/5 230/357/5 229/356/5 228/398/5
f 398/498/5 400/499/5 399/500/5 397/501/5
f 494/502/3 496/503/3 410/504/3 403/505/3
f 403/505/2 410/504/2 411/506/2 407/507/2
f 497/508/1 500/509/1 412/510/1 405/511/1
f 405/511/6 412/510/6 409/512/6 401/513/6
f 502/514/280 408/515/280 423/515/280 503/514/280
f 506/516/4 414/517/4 410/518/4 496/519/4
f 414/517/4 415/520/4 411/506/4 410/518/4
f 508/521/4 416/522/4 412/510/4 500/509/4
f 416/522/4 413/523/4 409/524/4 412/510/4
f 510/525/4 404/526/4 414/517/4 506/516/4
f 404/526/4 408/515/4 415/520/4 414/517/4
f 501/527/4 406/528/4 416/522/4 508/521/4
f 406/528/4 402/529/4 413/523/4 416/522/4
f 487/530/281 490/531/281 430/532/281 431/533/281
f 509/534/282 402/529/282 421/529/282 515/535/282
f 402/529/283 406/528/283 424/528/283 421/529/283
f 408/515/284 404/526/284 422/526/284 423/515/284
f 518/536/4 418/532/4 422/526/4 516/537/4
f 418/532/4 419/533/4 423/515/4 422/526/4
f 512/538/4 420/539/4 424/528/4 504/540/4
f 420/539/4 417/541/4 421/529/4 424/528/4
f 425/542/6 428/543/6 440/543/6 437/542/6
f 517/544/285 417/541/285 492/545/285 540/544/285
f 511/546/286 419/533/286 488/547/286 544/548/286
f 419/533/281 418/532/281 489/531/281 488/533/281
f 522/549/4 426/550/4 430/551/4 520/552/4
f 426/550/4 427/553/4 431/554/4 430/551/4
f 524/555/4 428/556/4 432/557/4 514/558/4
f 428/556/4 425/559/4 429/560/4 432/557/4
f 433/561/287 436/562/287 444/562/287 441/561/287
f 427/563/2 426/564/2 438/564/2 439/563/2
f 523/565/1 427/563/1 439/563/1 525/565/1
f 521/566/3 425/542/3 437/542/3 527/566/3
f 530/567/4 434/568/4 438/569/4 528/570/4
f 434/568/4 435/571/4 439/572/4 438/569/4
f 532/573/4 436/574/4 440/575/4 526/576/4
f 436/574/4 433/577/4 437/578/4 440/575/4
f 534/579/4 535/580/4 441/561/4 444/562/4
f 435/581/288 434/582/288 442/582/288 443/581/288
f 531/583/289 435/581/289 443/581/289 533/583/289
f 529/580/290 433/561/290 441/561/290 535/580/290
f 450/151/3 452/151/4 459/151/3 457/151/4
f 448/151/266 447/151/4 454/151/291 455/151/4
f 452/151/3 449/151/4 456/151/3 459/151/4
f 449/151/273 448/151/4 455/151/273 456/151/4
f 447/151/264 446/151/4 445/151/292 454/151/4
f 451/151/3 453/151/4 460/151/3 458/151/4
f 458/584/4 460/585/4 468/586/4 466/587/4
f 454/588/5 445/589/5 461/587/5 462/590/5
f 457/591/5 459/592/5 467/593/5 465/594/5
f 455/595/5 454/588/5 462/590/5 463/596/5
f 459/592/5 456/597/5 464/598/5 467/593/5
f 456/597/5 455/595/5 463/596/5 464/598/5
f 474/151/4 481/151/3 483/151/4 476/151/3
f 472/151/4 479/151/293 478/151/4 471/151/294
f 476/151/4 483/151/3 480/151/4 473/151/3
f 473/151/4 480/151/295 479/151/4 472/151/296
f 471/151/4 478/151/297 469/151/4 470/151/298
f 475/151/4 482/151/3 484/151/4 477/151/3
f 482/599/4 466/587/4 468/586/4 484/600/4
f 478/601/5 462/590/5 461/587/5 469/602/5
f 481/603/5 465/594/5 467/593/5 483/604/5
f 479/605/5 463/596/5 462/590/5 478/601/5
f 483/604/5 467/593/5 464/598/5 480/606/5
f 480/606/5 464/598/5 463/596/5 479/605/5
f 537/544/285 491/607/285 429/541/285 519/544/285
f 541/546/286 487/530/286 431/533/286 513/546/286
f 417/541/299 420/539/299 485/608/299 492/545/299
f 490/531/281 487/530/281 488/533/281 489/531/281
f 486/608/299 491/545/299 492/545/299 485/608/299
f 549/609/300 550/610/300 562/610/300 561/609/300
f 542/538/286 486/608/286 485/539/286 543/611/286
f 491/545/299 486/608/299 432/539/299 429/541/299
f 487/530/286 541/546/286 544/548/286 488/547/286
f 541/546/286 542/538/286 543/611/286 544/548/286
f 548/612/301 545/613/301 557/613/301 559/612/301
f 554/614/302 555/615/302 568/615/302 566/614/302
f 486/608/286 542/538/286 514/616/286 432/539/286
f 542/538/286 541/546/286 513/546/286 514/616/286
f 490/531/285 538/617/285 520/536/285 430/532/285
f 538/617/285 537/544/285 519/544/285 520/536/285
f 434/582/290 530/618/290 536/618/290 442/582/290
f 530/618/290 529/580/290 535/580/290 536/618/290
f 436/562/289 532/579/289 534/579/289 444/562/289
f 532/579/289 531/583/289 533/583/289 534/579/289
f 443/581/4 442/582/4 536/618/4 533/583/4
f 533/583/4 536/618/4 535/580/4 534/579/4
f 435/571/4 531/619/4 525/620/4 439/572/4
f 531/619/4 532/573/4 526/576/4 525/620/4
f 433/577/4 529/621/4 527/622/4 437/578/4
f 529/621/4 530/567/4 528/570/4 527/622/4
f 426/564/3 522/623/3 528/623/3 438/564/3
f 522/623/3 521/566/3 527/566/3 528/623/3
f 428/543/1 524/624/1 526/624/1 440/543/1
f 524/624/1 523/565/1 525/565/1 526/624/1
f 427/553/4 523/625/4 513/626/4 431/554/4
f 523/625/4 524/555/4 514/558/4 513/626/4
f 425/559/4 521/627/4 519/628/4 429/560/4
f 521/627/4 522/549/4 520/552/4 519/628/4
f 420/539/286 512/538/286 543/611/286 485/539/286
f 512/538/286 511/546/286 544/548/286 543/611/286
f 418/532/285 518/536/285 539/629/285 489/630/285
f 518/536/285 517/544/285 540/544/285 539/629/285
f 419/533/4 511/546/4 503/514/4 423/515/4
f 511/546/4 512/538/4 504/540/4 503/514/4
f 417/541/4 517/544/4 515/535/4 421/529/4
f 517/544/4 518/536/4 516/537/4 515/535/4
f 404/526/282 510/525/282 516/537/282 422/526/282
f 510/525/282 509/534/282 515/535/282 516/537/282
f 408/515/4 502/514/4 507/631/4 415/520/4
f 502/514/4 501/527/4 508/521/4 507/631/4
f 402/529/4 509/534/4 505/632/4 413/523/4
f 509/534/4 510/525/4 506/516/4 505/632/4
f 415/520/4 507/631/4 499/633/4 411/506/4
f 507/631/4 508/521/4 500/509/4 499/633/4
f 413/523/4 505/632/4 495/634/4 409/524/4
f 505/632/4 506/516/4 496/519/4 495/634/4
f 406/528/280 501/527/280 504/540/280 424/528/280
f 501/527/280 502/514/280 503/514/280 504/540/280
f 407/507/1 411/506/1 499/633/1 498/635/1
f 498/635/1 499/633/1 500/509/1 497/508/1
f 401/636/3 409/637/3 495/638/3 493/639/3
f 493/639/3 495/638/3 496/503/3 494/502/3
f 538/617/285 490/531/285 546/640/285 545/613/285
f 490/531/285 489/630/285 547/641/285 546/640/285
f 489/630/285 539/629/285 548/612/285 547/641/285
f 539/629/285 538/617/285 545/613/285 548/612/285
f 491/607/285 537/544/285 550/610/285 549/609/285
f 537/544/285 540/544/285 551/642/285 550/610/285
f 540/544/285 492/545/285 552/643/285 551/642/285
f 492/545/285 491/607/285 549/609/285 552/643/285
f 537/544/285 538/617/285 554/614/285 553/644/285
f 538/617/285 539/629/285 555/615/285 554/614/285
f 539/629/285 540/544/285 556/645/285 555/615/285
f 540/544/285 537/544/285 553/644/285 556/645/285
f 557/646/285 558/647/285 560/648/285 559/649/285
f 561/650/285 562/651/285 564/652/285 563/646/285
f 565/653/285 566/654/285 568/655/285 567/656/285
f 555/615/303 556/645/303 567/645/303 568/615/303
f 546/640/304 547/641/304 560/641/304 558/640/304
f 552/643/305 549/609/305 561/609/305 563/643/305
f 553/644/300 554/614/300 566/614/300 565/644/300
f 547/641/303 548/612/303 559/612/303 560/641/303
f 550/610/306 551/642/306 564/642/306 562/610/306
f 556/645/307 553/644/307 565/644/307 567/645/307
f 545/613/300 546/640/300 558/640/300 557/613/300
f 551/642/303 552/643/303 563/643/303 564/642/303
l 123 124
