# Blender 4.2.4 LTS
# www.blender.org
mtllib EnemyShip.mtl
o Circle
v 0.000000 0.161139 -0.500356
v -0.195090 0.161139 -0.498141
v -0.382683 0.161139 -0.486270
v -0.555570 0.161139 -0.457637
v -0.707107 0.161139 -0.406657
v -0.831470 0.161139 -0.329675
v -0.923880 0.161139 -0.196742
v -0.980785 0.161139 0.025089
v -1.000000 0.161139 0.372179
v -0.980785 0.161139 0.880306
v -0.923880 0.161139 1.478462
v -0.831470 0.161139 2.135722
v -0.707107 0.161139 2.810256
v -0.555570 0.161139 3.448301
v -0.382683 0.161139 3.987145
v -0.195090 0.161139 4.359294
v 0.000000 0.161139 4.497510
v 0.195090 0.161139 4.359294
v 0.382683 0.161139 3.987145
v 0.555570 0.161139 3.448301
v 0.707107 0.161139 2.810256
v 0.831470 0.161139 2.135722
v 0.923880 0.161139 1.478462
v 0.980785 0.161139 0.880306
v 1.000000 0.161139 0.372179
v 0.980785 0.161139 0.025089
v 0.923880 0.161139 -0.196742
v 0.831470 0.161139 -0.329675
v 0.707107 0.161139 -0.406657
v 0.555570 0.161139 -0.457637
v 0.382683 0.161139 -0.486270
v 0.195090 0.161139 -0.498141
v 0.000000 0.161139 -0.500356
v -0.195090 0.161139 -0.498141
v -0.382683 0.161139 -0.486270
v -0.555570 0.161139 -0.457637
v -0.707107 0.161139 -0.406657
v -0.831470 0.161139 -0.329675
v -0.923880 0.161139 -0.196742
v -0.980785 0.161139 0.025089
v -1.000000 0.161139 0.372179
v -0.980785 0.161139 0.880306
v -0.923880 0.161139 1.478462
v -0.831470 0.161139 2.135722
v -0.707107 0.161139 2.810256
v -0.555570 0.161139 3.448301
v -0.382683 0.161139 3.987145
v -0.195090 0.161139 4.359294
v 0.000000 0.161139 4.497510
v 0.195090 0.161139 4.359294
v 0.382683 0.161139 3.987145
v 0.555570 0.161139 3.448301
v 0.707107 0.161139 2.810256
v 0.831470 0.161139 2.135722
v 0.923880 0.161139 1.478462
v 0.980785 0.161139 0.880306
v 1.000000 0.161139 0.372179
v 0.980785 0.161139 0.025089
v 0.923880 0.161139 -0.196742
v 0.831470 0.161139 -0.329675
v 0.707107 0.161139 -0.406657
v 0.555570 0.161139 -0.457637
v 0.382683 0.161139 -0.486270
v 0.195090 0.161139 -0.498141
v 0.000000 -0.156238 -0.419113
v -0.185741 -0.156238 -0.417004
v -0.364345 -0.156238 -0.405702
v -0.528947 -0.156238 -0.378440
v -0.673222 -0.156238 -0.329904
v -0.791625 -0.156238 -0.256611
v -0.879607 -0.156238 -0.130048
v -0.933785 -0.156238 0.081153
v -0.952079 -0.156238 0.411610
v -0.933785 -0.156238 0.895387
v -0.879607 -0.156238 1.464879
v -0.791625 -0.156238 2.090642
v -0.673222 -0.156238 2.732853
v -0.528947 -0.156238 3.340322
v -0.364345 -0.156238 3.853345
v -0.185741 -0.156238 4.207660
v 0.000000 -0.156238 4.339253
v 0.185741 -0.156238 4.207660
v 0.364345 -0.156238 3.853345
v 0.528947 -0.156238 3.340322
v 0.673222 -0.156238 2.732853
v 0.791625 -0.156238 2.090642
v 0.879607 -0.156238 1.464879
v 0.933785 -0.156238 0.895387
v 0.952079 -0.156238 0.411610
v 0.933785 -0.156238 0.081153
v 0.879607 -0.156238 -0.130048
v 0.791625 -0.156238 -0.256611
v 0.673222 -0.156238 -0.329904
v 0.528947 -0.156238 -0.378440
v 0.364345 -0.156238 -0.405702
v 0.185741 -0.156238 -0.417004
v 0.000000 -0.380470 -0.324644
v -0.174871 -0.380470 -0.322659
v -0.343021 -0.380470 -0.312018
v -0.497990 -0.380470 -0.286352
v -0.633821 -0.380470 -0.240656
v -0.745294 -0.380470 -0.171653
v -0.828126 -0.380470 -0.052497
v -0.879134 -0.380470 0.146343
v -0.896358 -0.380470 0.457460
v -0.879134 -0.380470 0.912923
v -0.828126 -0.380470 1.449085
v -0.745294 -0.380470 2.038224
v -0.633821 -0.380470 2.642849
v -0.497990 -0.380470 3.214765
v -0.343021 -0.380470 3.697762
v -0.174871 -0.380470 4.031341
v 0.000000 -0.380470 4.155232
v 0.174871 -0.380470 4.031341
v 0.343021 -0.380470 3.697762
v 0.497990 -0.380470 3.214765
v 0.633821 -0.380470 2.642849
v 0.745294 -0.380470 2.038224
v 0.828126 -0.380470 1.449085
v 0.879134 -0.380470 0.912923
v 0.896358 -0.380470 0.457460
v 0.879134 -0.380470 0.146343
v 0.828126 -0.380470 -0.052497
v 0.745294 -0.380470 -0.171653
v 0.633821 -0.380470 -0.240656
v 0.497990 -0.380470 -0.286352
v 0.343021 -0.380470 -0.312018
v 0.174871 -0.380470 -0.322659
v 0.000000 -0.598069 -0.203058
v -0.160879 -0.598069 -0.201231
v -0.315576 -0.598069 -0.191442
v -0.458146 -0.598069 -0.167830
v -0.583109 -0.598069 -0.125790
v -0.685664 -0.598069 -0.062307
v -0.761869 -0.598069 0.047315
v -0.808796 -0.598069 0.230246
v -0.824641 -0.598069 0.516470
v -0.808796 -0.598069 0.935493
v -0.761869 -0.598069 1.428757
v -0.685664 -0.598069 1.970760
v -0.583109 -0.598069 2.527009
v -0.458146 -0.598069 3.053167
v -0.315576 -0.598069 3.497520
v -0.160879 -0.598069 3.804410
v 0.000000 -0.598069 3.918388
v 0.160879 -0.598069 3.804410
v 0.315576 -0.598069 3.497520
v 0.458146 -0.598069 3.053167
v 0.583109 -0.598069 2.527009
v 0.685664 -0.598069 1.970760
v 0.761869 -0.598069 1.428757
v 0.808796 -0.598069 0.935493
v 0.824641 -0.598069 0.516470
v 0.808796 -0.598069 0.230246
v 0.761869 -0.598069 0.047315
v 0.685664 -0.598069 -0.062307
v 0.583109 -0.598069 -0.125790
v 0.458146 -0.598069 -0.167830
v 0.315576 -0.598069 -0.191442
v 0.160879 -0.598069 -0.201231
v 0.000000 -0.824375 0.059472
v -0.130670 -0.824375 0.060955
v -0.256318 -0.824375 0.068906
v -0.372115 -0.824375 0.088085
v -0.473613 -0.824375 0.122230
v -0.556910 -0.824375 0.173792
v -0.618805 -0.824375 0.262829
v -0.656920 -0.824375 0.411410
v -0.669790 -0.824375 0.643887
v -0.656920 -0.824375 0.984225
v -0.618805 -0.824375 1.384864
v -0.556910 -0.824375 1.825091
v -0.473613 -0.824375 2.276887
v -0.372115 -0.824375 2.704243
v -0.256318 -0.824375 3.065156
v -0.130670 -0.824375 3.314418
v 0.000000 -0.824375 3.406994
v 0.130670 -0.824375 3.314418
v 0.256318 -0.824375 3.065156
v 0.372115 -0.824375 2.704243
v 0.473613 -0.824375 2.276887
v 0.556910 -0.824375 1.825091
v 0.618805 -0.824375 1.384864
v 0.656920 -0.824375 0.984225
v 0.669790 -0.824375 0.643887
v 0.656920 -0.824375 0.411410
v 0.618805 -0.824375 0.262829
v 0.556910 -0.824375 0.173792
v 0.473613 -0.824375 0.122230
v 0.372115 -0.824375 0.088085
v 0.256318 -0.824375 0.068906
v 0.130670 -0.824375 0.060955
v -0.026020 -0.953169 0.705991
v -0.082719 -0.953169 0.706634
v -0.137239 -0.953169 0.710084
v -0.187484 -0.953169 0.718406
v -0.231525 -0.953169 0.733222
v -0.267669 -0.953169 0.755595
v -0.294526 -0.953169 0.794230
v -0.311064 -0.953169 0.858700
v -0.316649 -0.953169 0.959574
v -0.311064 -0.953169 1.107251
v -0.294526 -0.953169 1.281092
v -0.267669 -0.953169 1.472111
v -0.231525 -0.953169 1.668150
v -0.187484 -0.953169 1.853584
v -0.137239 -0.953169 2.010188
v -0.082719 -0.953169 2.118345
v -0.026020 -0.953169 2.158515
v 0.030679 -0.953169 2.118345
v 0.085199 -0.953169 2.010188
v 0.135445 -0.953169 1.853584
v 0.179486 -0.953169 1.668150
v 0.215629 -0.953169 1.472111
v 0.242486 -0.953169 1.281092
v 0.259025 -0.953169 1.107251
v 0.264609 -0.953169 0.959574
v 0.259025 -0.953169 0.858700
v 0.242486 -0.953169 0.794230
v 0.215629 -0.953169 0.755595
v 0.179486 -0.953169 0.733222
v 0.135445 -0.953169 0.718406
v 0.085199 -0.953169 0.710084
v 0.030679 -0.953169 0.706634
v 0.000000 0.236511 -0.042864
v -0.142446 0.236511 -0.041247
v -0.279417 0.236511 -0.032579
v -0.405651 0.236511 -0.011672
v -0.516295 0.236511 0.025551
v -0.607099 0.236511 0.081759
v -0.674572 0.236511 0.178820
v -0.716122 0.236511 0.340791
v -0.730152 0.236511 0.594219
v -0.716122 0.236511 0.965229
v -0.674572 0.236511 1.401974
v -0.607099 0.236511 1.881873
v -0.516295 0.236511 2.374386
v -0.405651 0.236511 2.840256
v -0.279417 0.236511 3.233694
v -0.142446 0.236511 3.505419
v 0.000000 0.236511 3.606338
v 0.142446 0.236511 3.505419
v 0.279417 0.236511 3.233694
v 0.405651 0.236511 2.840256
v 0.516295 0.236511 2.374386
v 0.607099 0.236511 1.881873
v 0.674572 0.236511 1.401974
v 0.716122 0.236511 0.965229
v 0.730152 0.236511 0.594219
v 0.716122 0.236511 0.340791
v 0.674572 0.236511 0.178820
v 0.607099 0.236511 0.081759
v 0.516295 0.236511 0.025551
v 0.405651 0.236511 -0.011672
v 0.279417 0.236511 -0.032579
v 0.142446 0.236511 -0.041247
v 0.000000 -0.166788 0.654688
v -0.062177 -0.166788 0.655394
v -0.121964 -0.166788 0.659177
v -0.177064 -0.166788 0.668303
v -0.225360 -0.166788 0.684550
v -0.264995 -0.166788 0.709085
v -0.294446 -0.166788 0.751452
v -0.312583 -0.166788 0.822151
v -0.318707 -0.166788 0.932771
v -0.312583 -0.166788 1.094714
v -0.294446 -0.166788 1.285350
v -0.264995 -0.166788 1.494823
v -0.225360 -0.166788 1.709802
v -0.177064 -0.166788 1.913151
v -0.121964 -0.166788 2.084884
v -0.062177 -0.166788 2.203491
v 0.000000 -0.166788 2.247541
v 0.062177 -0.166788 2.203491
v 0.121964 -0.166788 2.084884
v 0.177064 -0.166788 1.913151
v 0.225360 -0.166788 1.709802
v 0.264995 -0.166788 1.494823
v 0.294446 -0.166788 1.285350
v 0.312583 -0.166788 1.094714
v 0.318707 -0.166788 0.932771
v 0.312583 -0.166788 0.822151
v 0.294446 -0.166788 0.751452
v 0.264995 -0.166788 0.709085
v 0.225360 -0.166788 0.684550
v 0.177064 -0.166788 0.668303
v 0.121964 -0.166788 0.659177
v 0.062177 -0.166788 0.655394
v -0.516295 0.236511 2.374386
v -0.405651 0.236511 2.840256
v -0.279417 0.236511 3.233694
v -0.142446 0.236511 3.505419
v 0.000000 0.236511 3.606338
v 0.142446 0.236511 3.505419
v 0.279417 0.236511 3.233694
v 0.405651 0.236511 2.840256
v 0.516295 0.236511 2.374386
v 0.607099 0.236511 1.881873
v -0.516295 0.350739 2.506615
v -0.257633 0.746803 2.978626
v -0.177461 0.768855 3.170043
v -0.090469 0.798457 3.302243
v 0.000000 0.807792 3.351343
v 0.090469 0.798457 3.302243
v 0.177461 0.768855 3.170043
v 0.257633 0.746803 2.978626
v 0.516295 0.350739 2.506615
v -0.119199 0.487837 3.414551
v 0.000000 0.506263 3.492294
v -0.516295 0.287599 2.433524
v -0.339451 0.464735 2.902141
v 0.339451 0.464735 2.902141
v 0.516295 0.287599 2.433524
v 0.119199 0.487837 3.414551
v -0.233818 0.474598 3.205226
v 0.233818 0.474598 3.205226
v -0.119199 0.487837 3.414551
v 0.000000 0.506263 3.492294
v -0.516295 0.287599 2.433524
v -0.339451 0.464735 2.902141
v 0.339451 0.464735 2.902141
v 0.516295 0.287599 2.433524
v 0.119199 0.487837 3.414551
v -0.233818 0.474598 3.205226
v 0.233818 0.474598 3.205226
v -0.119199 0.487837 3.414551
v 0.000000 0.506263 3.492294
v -0.516295 0.287599 2.433524
v -0.339451 0.464735 2.902141
v 0.339451 0.464735 2.902141
v 0.516295 0.287599 2.433524
v 0.119199 0.487837 3.414551
v -0.233818 0.474598 3.205226
v 0.233818 0.474598 3.205226
v -0.119199 0.487837 3.414551
v 0.000000 0.506263 3.492294
v -0.516295 0.287599 2.433524
v -0.339451 0.464735 2.902141
v 0.339451 0.464735 2.902141
v 0.516295 0.287599 2.433524
v 0.119199 0.487837 3.414551
v -0.233818 0.474598 3.205226
v 0.233818 0.474598 3.205226
v -0.170306 -0.020864 -0.346831
v -0.124816 -0.066354 -0.346831
v -0.124816 0.274258 -0.346831
v -0.170306 0.228768 -0.346831
v -0.124816 -0.066354 -0.906762
v -0.170306 -0.020864 -0.906762
v -0.170306 0.228768 -0.906762
v -0.124816 0.274258 -0.906762
v 0.124816 -0.066354 -0.346831
v 0.170306 -0.020864 -0.346831
v 0.170306 0.228768 -0.346831
v 0.124816 0.274258 -0.346831
v 0.170306 -0.020864 -0.906762
v 0.124816 -0.066354 -0.906762
v 0.124816 0.274258 -0.906762
v 0.170306 0.228768 -0.906762
v 0.000000 -0.588673 -0.852317
v 0.000000 0.186978 -0.852317
v 0.010995 -0.588673 -0.851617
v 0.010995 0.186978 -0.851617
v 0.021568 -0.588673 -0.849543
v 0.021568 0.186978 -0.849543
v 0.031312 -0.588673 -0.846176
v 0.031312 0.186978 -0.846176
v 0.039853 -0.588673 -0.841643
v 0.039853 0.186978 -0.841643
v 0.046862 -0.588673 -0.836121
v 0.046862 0.186978 -0.836121
v 0.052070 -0.588673 -0.829820
v 0.052070 0.186978 -0.829820
v 0.055277 -0.588673 -0.822984
v 0.055277 0.186978 -0.822984
v 0.056360 -0.588673 -0.815874
v 0.056360 0.186978 -0.815874
v 0.055277 -0.588673 -0.808764
v 0.055277 0.186978 -0.808764
v 0.052070 -0.588673 -0.801928
v 0.052070 0.186978 -0.801928
v 0.046862 -0.588673 -0.795627
v 0.046862 0.186978 -0.795627
v 0.039853 -0.588673 -0.790105
v 0.039853 0.186978 -0.790105
v 0.031312 -0.588673 -0.785573
v 0.031312 0.186978 -0.785573
v 0.021568 -0.588673 -0.782205
v 0.021568 0.186978 -0.782205
v 0.010995 -0.588673 -0.780131
v 0.010995 0.186978 -0.780131
v 0.000000 -0.588673 -0.779431
v 0.000000 0.186978 -0.779431
v -0.010995 -0.588673 -0.780131
v -0.010995 0.186978 -0.780131
v -0.021568 -0.588673 -0.782205
v -0.021568 0.186978 -0.782205
v -0.031312 -0.588673 -0.785573
v -0.031312 0.186978 -0.785573
v -0.039853 -0.588673 -0.790105
v -0.039853 0.186978 -0.790105
v -0.046862 -0.588673 -0.795627
v -0.046862 0.186978 -0.795627
v -0.052070 -0.588673 -0.801928
v -0.052070 0.186978 -0.801928
v -0.055277 -0.588673 -0.808764
v -0.055277 0.186978 -0.808764
v -0.056360 -0.588673 -0.815874
v -0.056360 0.186978 -0.815874
v -0.055277 -0.588673 -0.822984
v -0.055277 0.186978 -0.822984
v -0.052070 -0.588673 -0.829820
v -0.052070 0.186978 -0.829820
v -0.046862 -0.588673 -0.836121
v -0.046862 0.186978 -0.836121
v -0.039853 -0.588673 -0.841643
v -0.039853 0.186978 -0.841643
v -0.031312 -0.588673 -0.846176
v -0.031312 0.186978 -0.846176
v -0.021568 -0.588673 -0.849543
v -0.021568 0.186978 -0.849543
v -0.010995 -0.588673 -0.851617
v -0.010995 0.186978 -0.851617
v -0.070632 -0.227381 1.168322
v -0.070632 1.195545 1.168322
v -0.070632 -0.227381 1.010205
v -0.070632 1.195545 1.010205
v 0.087485 -0.227381 1.168322
v 0.087485 1.195545 1.168322
v 0.087485 -0.227381 1.010205
v 0.087485 1.195545 1.010205
v -0.070632 1.322876 1.168322
v -0.070632 1.322876 1.010205
v 0.087485 1.322876 1.168322
v 0.087485 1.322876 1.010205
v -0.070632 1.198518 1.168322
v -0.070632 1.198518 1.010205
v 0.087485 1.198518 1.168322
v 0.087485 1.198518 1.010205
v 0.027391 1.322876 2.516301
v -0.010539 1.322876 2.516301
v 0.087485 1.198518 2.557170
v -0.070632 1.198518 2.557170
v -0.070632 1.394696 0.574914
v 0.087485 1.394696 0.574914
v -0.070632 1.126698 0.574914
v 0.087485 1.126698 0.574914
v 0.087485 1.198518 1.437398
v 0.087485 1.198518 1.369824
v 0.087485 1.322876 1.369824
v 0.087485 1.322876 1.437398
v -0.070632 1.198518 1.437398
v -0.070632 1.198518 1.369824
v -0.070632 1.322876 1.369824
v -0.070632 1.322876 1.437398
v -0.070632 1.131278 1.437398
v -0.070632 1.131278 1.369824
v 0.087485 1.131278 1.437398
v 0.087485 1.131278 1.369824
v 0.087485 1.198518 2.389058
v -0.070632 1.198518 2.389058
v 0.027391 1.322876 2.429926
v -0.010539 1.322876 2.429926
v 0.087485 1.322876 2.557170
v -0.070632 1.322876 2.557170
v 0.087485 1.322876 2.389058
v -0.070632 1.322876 2.389058
v 0.027391 1.401831 2.516301
v -0.010539 1.401831 2.516301
v 0.027391 1.401831 2.470655
v -0.010539 1.401831 2.470655
v 0.327745 1.085007 1.527062
v 0.327745 1.085007 1.118643
v 0.327745 0.763789 1.527062
v 0.327745 0.763789 1.118643
v -0.358120 1.085007 1.527062
v -0.358120 1.085007 1.118643
v -0.358120 0.763789 1.527062
v -0.358120 0.763789 1.118643
vn -0.0000 1.0000 -0.0000
vn -0.0000 1.0000 -0.0001
vn -0.0000 1.0000 0.0001
vn 0.9885 -0.1508 -0.0122
vn 0.9876 -0.1432 0.0646
vn 0.9801 -0.1874 0.0648
vn 0.9804 -0.1968 -0.0095
vn -0.9763 -0.1453 0.1602
vn -0.9830 -0.1421 0.1162
vn -0.9758 -0.1861 0.1151
vn -0.9690 -0.1901 0.1578
vn 0.9721 -0.1721 -0.1592
vn 0.9631 -0.2230 -0.1508
vn -0.9662 -0.1537 0.2071
vn -0.9584 -0.2005 0.2029
vn 0.8829 -0.2113 -0.4193
vn 0.8743 -0.2708 -0.4028
vn -0.9471 -0.1717 0.2713
vn -0.9387 -0.2226 0.2634
vn 0.6612 -0.2462 -0.7087
vn 0.6526 -0.3136 -0.6897
vn -0.8975 -0.2143 0.3854
vn -0.8891 -0.2730 0.3674
vn -0.0364 -0.2485 -0.9679
vn -0.0000 -0.2480 -0.9688
vn -0.0000 -0.3188 -0.9478
vn -0.0354 -0.3193 -0.9470
vn 0.4109 -0.2555 -0.8751
vn 0.4020 -0.3264 -0.8555
vn -0.6871 -0.3296 0.6475
vn -0.6950 -0.3997 0.5976
vn -0.1106 -0.2505 -0.9618
vn -0.1076 -0.3214 -0.9408
vn 0.2349 -0.2538 -0.9383
vn 0.2290 -0.3249 -0.9176
vn -0.5355 -0.3769 0.7558
vn -0.5163 -0.4500 0.7287
vn -0.2349 -0.2538 -0.9383
vn -0.2290 -0.3249 -0.9176
vn 0.1106 -0.2505 -0.9618
vn 0.1076 -0.3214 -0.9408
vn 0.6871 -0.3296 0.6475
vn 0.5355 -0.3769 0.7558
vn 0.5163 -0.4500 0.7287
vn 0.6950 -0.3997 0.5976
vn -0.4109 -0.2555 -0.8751
vn -0.4020 -0.3264 -0.8555
vn 0.0364 -0.2485 -0.9679
vn 0.0354 -0.3193 -0.9470
vn 0.8975 -0.2143 0.3854
vn 0.8891 -0.2730 0.3674
vn -0.6612 -0.2462 -0.7087
vn -0.6526 -0.3136 -0.6897
vn 0.9471 -0.1717 0.2713
vn 0.9387 -0.2226 0.2634
vn -0.8829 -0.2113 -0.4193
vn -0.8743 -0.2708 -0.4028
vn 0.9662 -0.1537 0.2071
vn 0.9584 -0.2005 0.2029
vn -0.9721 -0.1721 -0.1592
vn -0.9631 -0.2230 -0.1508
vn 0.9763 -0.1453 0.1602
vn 0.9690 -0.1901 0.1578
vn -0.9885 -0.1508 -0.0122
vn -0.9804 -0.1968 -0.0095
vn 0.9830 -0.1421 0.1162
vn 0.9758 -0.1861 0.1151
vn -0.9876 -0.1432 0.0646
vn -0.9801 -0.1874 0.0648
vn 0.8422 -0.3773 -0.3853
vn 0.6209 -0.4325 -0.6538
vn -0.9145 -0.3134 0.2558
vn -0.8563 -0.3784 0.3514
vn -0.0000 -0.4385 -0.8987
vn -0.0335 -0.4391 -0.8978
vn 0.3802 -0.4483 -0.8089
vn -0.6501 -0.5299 0.5446
vn -0.1018 -0.4418 -0.8913
vn 0.2165 -0.4463 -0.8683
vn -0.4637 -0.5973 0.6544
vn -0.2165 -0.4463 -0.8683
vn 0.1018 -0.4418 -0.8913
vn 0.4637 -0.5973 0.6544
vn 0.6501 -0.5299 0.5446
vn -0.3802 -0.4483 -0.8089
vn 0.0335 -0.4391 -0.8978
vn 0.8563 -0.3784 0.3514
vn -0.6209 -0.4325 -0.6538
vn 0.9145 -0.3134 0.2558
vn -0.8422 -0.3773 -0.3853
vn 0.9381 -0.2840 0.1983
vn -0.9381 -0.3143 -0.1458
vn 0.9504 -0.2700 0.1547
vn -0.9602 -0.2791 -0.0090
vn 0.9578 -0.2645 0.1129
vn -0.9618 -0.2663 0.0637
vn 0.9618 -0.2663 0.0637
vn -0.9578 -0.2645 0.1129
vn 0.9602 -0.2791 -0.0090
vn -0.9504 -0.2700 0.1547
vn 0.9381 -0.3143 -0.1458
vn -0.9381 -0.2840 0.1983
vn -0.0878 -0.6334 -0.7688
vn -0.1865 -0.6367 -0.7482
vn 0.1865 -0.6367 -0.7482
vn 0.0878 -0.6334 -0.7688
vn 0.3849 -0.7461 0.5433
vn 0.5533 -0.7039 0.4455
vn -0.3278 -0.6374 -0.6974
vn 0.0289 -0.6317 -0.7747
vn 0.7626 -0.5672 0.3111
vn -0.5422 -0.6181 -0.5692
vn -0.0000 -0.6316 -0.7753
vn 0.8388 -0.4912 0.2349
vn -0.7532 -0.5611 -0.3433
vn 0.8723 -0.4527 0.1850
vn -0.8612 -0.4901 -0.1348
vn 0.8895 -0.4333 0.1452
vn -0.8953 -0.4453 -0.0093
vn 0.8988 -0.4254 0.1061
vn -0.9019 -0.4278 0.0594
vn 0.9019 -0.4278 0.0594
vn -0.8988 -0.4254 0.1061
vn 0.8953 -0.4453 -0.0093
vn -0.8895 -0.4333 0.1452
vn 0.8612 -0.4901 -0.1348
vn -0.8723 -0.4527 0.1850
vn 0.7532 -0.5611 -0.3433
vn -0.8388 -0.4912 0.2349
vn 0.5422 -0.6181 -0.5692
vn -0.7626 -0.5672 0.3111
vn -0.0289 -0.6317 -0.7747
vn 0.3278 -0.6374 -0.6974
vn -0.5533 -0.7039 0.4455
vn -0.3849 -0.7461 0.5433
vn -0.3302 -0.8820 -0.3361
vn -0.6778 -0.6844 -0.2687
vn 0.7745 -0.6006 0.1986
vn 0.8070 -0.5682 0.1608
vn -0.7894 -0.6063 -0.0956
vn 0.8240 -0.5518 0.1289
vn -0.8262 -0.5633 0.0036
vn 0.8327 -0.5452 0.0969
vn -0.8347 -0.5475 0.0587
vn 0.8347 -0.5475 0.0587
vn -0.8327 -0.5452 0.0969
vn 0.8262 -0.5633 0.0036
vn -0.8240 -0.5518 0.1289
vn 0.7894 -0.6063 -0.0956
vn -0.8070 -0.5682 0.1608
vn 0.6778 -0.6844 -0.2687
vn -0.7745 -0.6006 0.1986
vn 0.3281 -0.8841 -0.3328
vn -0.4872 -0.8533 0.1855
vn -0.0000 -0.8980 -0.4401
vn -0.0162 -0.8973 -0.4411
vn 0.1886 -0.8969 -0.4000
vn -0.3434 -0.9074 0.2422
vn -0.0494 -0.8969 -0.4395
vn 0.1059 -0.8977 -0.4276
vn 0.0002 -0.9501 0.3118
vn -0.1060 -0.8970 -0.4292
vn 0.0495 -0.8973 -0.4387
vn 0.3424 -0.9082 0.2406
vn -0.1893 -0.8956 -0.4025
vn 0.0163 -0.8974 -0.4408
vn 0.7037 -0.6645 0.2514
vn 0.1926 -0.9761 -0.1002
vn 0.2565 -0.9653 -0.0498
vn 0.1485 -0.9888 -0.0160
vn 0.1216 -0.9915 -0.0458
vn -0.2769 -0.9572 0.0848
vn -0.3201 -0.9446 0.0726
vn -0.1732 -0.9843 0.0337
vn -0.1595 -0.9864 0.0399
vn 0.0785 -0.9939 -0.0771
vn -0.1357 -0.9896 0.0469
vn -0.0000 -0.9951 -0.0989
vn -0.0037 -0.9950 -0.0996
vn 0.0427 -0.9949 -0.0910
vn -0.0930 -0.9940 0.0575
vn -0.0112 -0.9949 -0.1001
vn 0.0236 -0.9950 -0.0970
vn -0.0012 -0.9974 0.0715
vn -0.0244 -0.9948 -0.0987
vn 0.0108 -0.9950 -0.0993
vn 0.0861 -0.9948 0.0542
vn -0.0446 -0.9946 -0.0937
vn 0.0035 -0.9950 -0.0994
vn 0.1901 -0.9778 0.0885
vn 0.1225 -0.9915 0.0427
vn -0.0842 -0.9931 -0.0810
vn 0.2506 -0.9651 0.0764
vn 0.1419 -0.9892 0.0357
vn -0.2070 -0.9722 -0.1093
vn -0.1343 -0.9897 -0.0493
vn 0.2854 -0.9562 0.0644
vn 0.1527 -0.9878 0.0299
vn -0.2838 -0.9572 -0.0562
vn -0.1675 -0.9857 -0.0174
vn 0.3050 -0.9509 0.0521
vn 0.1587 -0.9870 0.0244
vn -0.3351 -0.9421 -0.0095
vn -0.1808 -0.9835 0.0023
vn 0.3143 -0.9486 0.0377
vn 0.1616 -0.9867 0.0187
vn -0.3555 -0.9344 0.0212
vn -0.1847 -0.9827 0.0136
vn 0.3132 -0.9495 0.0189
vn 0.1620 -0.9867 0.0118
vn -0.3569 -0.9332 0.0430
vn -0.1843 -0.9826 0.0212
vn 0.2973 -0.9548 -0.0079
vn 0.1589 -0.9873 0.0017
vn -0.3448 -0.9368 0.0593
vn -0.1807 -0.9831 0.0276
vn -0.1088 0.9866 -0.1214
vn -0.1660 0.9823 -0.0870
vn -0.1897 0.9793 -0.0706
vn -0.1190 0.9861 -0.1157
vn 0.2185 0.9736 0.0668
vn 0.2516 0.9662 0.0569
vn 0.2634 0.9633 0.0513
vn 0.2416 0.9685 0.0605
vn -0.2246 0.9734 -0.0441
vn -0.2451 0.9692 -0.0259
vn 0.2705 0.9616 0.0464
vn 0.2751 0.9605 0.0421
vn -0.2635 0.9646 -0.0073
vn -0.2714 0.9625 0.0032
vn 0.2798 0.9595 0.0336
vn 0.2801 0.9594 0.0323
vn -0.2788 0.9602 0.0167
vn -0.2799 0.9598 0.0205
vn 0.2788 0.9602 0.0167
vn 0.2799 0.9598 0.0205
vn -0.2798 0.9595 0.0336
vn -0.2801 0.9594 0.0323
vn 0.2635 0.9646 -0.0073
vn 0.2714 0.9625 0.0032
vn -0.2705 0.9616 0.0464
vn -0.2751 0.9605 0.0421
vn 0.2246 0.9734 -0.0441
vn 0.2451 0.9692 -0.0259
vn -0.2516 0.9662 0.0569
vn -0.2634 0.9633 0.0513
vn 0.1660 0.9823 -0.0870
vn 0.1897 0.9793 -0.0706
vn -0.2185 0.9736 0.0668
vn -0.2416 0.9685 0.0605
vn 0.1088 0.9866 -0.1214
vn 0.1190 0.9861 -0.1157
vn -0.1628 0.9837 0.0761
vn -0.2020 0.9769 0.0700
vn -0.0000 0.9867 -0.1626
vn -0.0062 0.9868 -0.1621
vn -0.0058 0.9868 -0.1621
vn 0.0668 0.9875 -0.1427
vn 0.0673 0.9875 -0.1425
vn -0.0786 0.9935 0.0828
vn -0.1274 0.9887 0.0794
vn -0.0188 0.9870 -0.1597
vn -0.0177 0.9870 -0.1599
vn 0.0390 0.9873 -0.1538
vn 0.0377 0.9873 -0.1542
vn -0.0000 0.9964 0.0843
vn -0.0390 0.9873 -0.1538
vn -0.0377 0.9873 -0.1542
vn 0.0188 0.9870 -0.1597
vn 0.0177 0.9870 -0.1599
vn 0.0786 0.9935 0.0828
vn 0.1274 0.9887 0.0794
vn -0.0668 0.9875 -0.1427
vn -0.0673 0.9875 -0.1425
vn 0.0062 0.9868 -0.1621
vn 0.0058 0.9868 -0.1621
vn 0.1628 0.9837 0.0761
vn 0.2020 0.9769 0.0700
vn -0.4956 0.8301 0.2557
vn -0.3361 0.8649 0.3728
vn -0.2100 0.9556 0.2066
vn -0.5449 0.8118 0.2100
vn 0.6100 0.7706 -0.1848
vn 0.4915 0.8406 -0.2277
vn 0.5712 0.7958 -0.2011
vn 0.6474 0.7443 -0.1642
vn -0.0000 0.8657 0.5005
vn 0.0192 0.8662 0.4993
vn 0.0095 0.9649 0.2625
vn -0.2072 0.8725 0.4425
vn -0.1151 0.9630 0.2438
vn 0.2594 0.9269 -0.2711
vn 0.2308 0.9618 -0.1474
vn 0.0578 0.8681 0.4930
vn 0.0292 0.9644 0.2630
vn -0.1204 0.8711 0.4762
vn -0.0634 0.9640 0.2584
vn -0.0000 0.9587 -0.2845
vn -0.0000 0.9802 -0.1978
vn 0.1204 0.8711 0.4762
vn 0.0634 0.9640 0.2584
vn -0.0578 0.8681 0.4930
vn -0.0292 0.9644 0.2630
vn -0.2594 0.9269 -0.2711
vn -0.2308 0.9618 -0.1474
vn 0.2072 0.8725 0.4425
vn 0.1151 0.9630 0.2438
vn -0.0192 0.8662 0.4993
vn -0.0095 0.9649 0.2625
vn -0.4915 0.8406 -0.2277
vn -0.5712 0.7958 -0.2011
vn 0.3361 0.8649 0.3728
vn 0.2100 0.9556 0.2066
vn -0.6100 0.7706 -0.1848
vn -0.6474 0.7443 -0.1642
vn 0.4956 0.8301 0.2557
vn 0.5449 0.8118 0.2100
vn -0.6682 0.7287 -0.1497
vn -0.6846 0.7163 -0.1350
vn 0.6272 0.7697 0.1190
vn 0.6584 0.7488 0.0754
vn -0.6983 0.7060 -0.1184
vn -0.7039 0.7018 -0.1091
vn 0.6929 0.7208 0.0165
vn 0.7021 0.7120 -0.0051
vn -0.7126 0.6963 -0.0852
vn -0.7132 0.6961 -0.0827
vn 0.7132 0.6996 -0.0439
vn 0.7141 0.6982 -0.0510
vn -0.7132 0.6996 -0.0439
vn -0.7141 0.6982 -0.0510
vn 0.7126 0.6963 -0.0852
vn 0.7132 0.6961 -0.0827
vn -0.6929 0.7208 0.0165
vn -0.7021 0.7120 -0.0051
vn 0.6983 0.7060 -0.1184
vn 0.7039 0.7018 -0.1091
vn -0.6272 0.7697 0.1190
vn -0.6584 0.7488 0.0754
vn 0.6682 0.7287 -0.1497
vn 0.6846 0.7163 -0.1350
vn -0.0000 -0.0000 -1.0000
vn -0.5186 0.3475 0.7812
vn -0.7067 0.2983 0.6415
vn -0.6921 0.3032 0.6550
vn -0.9214 0.0988 0.3759
vn -0.9229 0.1633 0.3487
vn -0.9168 0.0453 0.3968
vn 0.9168 0.0453 0.3968
vn 0.9229 0.1633 0.3487
vn 0.9214 0.0988 0.3759
vn 0.6921 0.3032 0.6550
vn 0.7067 0.2983 0.6415
vn 0.5186 0.3475 0.7812
vn -0.8889 0.2164 0.4037
vn -0.8858 0.2180 0.4096
vn 0.8889 0.2164 0.4037
vn 0.8858 0.2180 0.4096
vn 0.9468 0.1452 0.2871
vn 0.9394 0.1717 0.2966
vn 0.9001 0.2165 0.3781
vn 0.8996 0.2167 0.3792
vn -0.7048 0.2929 0.6461
vn -0.7358 0.2836 0.6149
vn -0.9001 0.2165 0.3781
vn -0.8996 0.2167 0.3792
vn 0.7358 0.2836 0.6149
vn 0.7048 0.2929 0.6461
vn -0.9394 0.1717 0.2966
vn -0.9468 0.1452 0.2871
vn 0.5485 0.3271 0.7695
vn 0.9558 0.1080 0.2736
vn -0.9558 0.1080 0.2736
vn -0.5485 0.3271 0.7695
vn -0.0001 1.0000 -0.0000
vn -0.0000 -0.0000 1.0000
vn 0.0001 1.0000 -0.0000
vn 0.0001 1.0000 0.0001
vn 1.0000 -0.0000 -0.0000
vn -1.0000 -0.0000 -0.0000
vn -0.7071 -0.7071 -0.0000
vn -0.7071 0.7071 -0.0000
vn 0.7071 -0.7071 -0.0000
vn 0.7071 0.7071 -0.0000
vn -0.0000 -1.0000 -0.0000
vn 0.1276 -0.0000 -0.9918
vn 0.2587 -0.0000 -0.9659
vn 0.3966 -0.0000 -0.9180
vn 0.5431 -0.0000 -0.8397
vn 0.6954 -0.0000 -0.7186
vn 0.8420 -0.0000 -0.5394
vn 0.9558 -0.0000 -0.2940
vn 0.9558 -0.0000 0.2940
vn 0.8420 -0.0000 0.5394
vn 0.6954 -0.0000 0.7186
vn 0.5430 -0.0000 0.8397
vn 0.3966 -0.0000 0.9180
vn 0.2587 -0.0000 0.9660
vn 0.1276 -0.0000 0.9918
vn -0.1276 -0.0000 0.9918
vn -0.2587 -0.0000 0.9660
vn -0.3966 -0.0000 0.9180
vn -0.5430 -0.0000 0.8397
vn -0.6954 -0.0000 0.7186
vn -0.8420 -0.0000 0.5394
vn -0.9558 -0.0000 0.2940
vn -0.9558 -0.0000 -0.2940
vn -0.8420 -0.0000 -0.5394
vn -0.6954 -0.0000 -0.7186
vn -0.5431 -0.0000 -0.8397
vn -0.3966 -0.0000 -0.9180
vn -0.2587 -0.0000 -0.9659
vn -0.1276 -0.0000 -0.9918
vn -0.0000 -0.9867 0.1628
vn -0.0000 0.9867 0.1628
vn -0.0000 0.4584 -0.8887
vt 0.924288 0.064991
vt 0.924539 0.066059
vt 0.924539 0.066059
vt 0.924288 0.064991
vt 0.944437 0.059015
vt 0.944022 0.057592
vt 0.944023 0.057591
vt 0.944438 0.059015
vt 0.924230 0.057003
vt 0.924098 0.058247
vt 0.924098 0.058247
vt 0.924230 0.057002
vt 0.924142 0.063755
vt 0.924141 0.063755
vt 0.944064 0.060762
vt 0.944065 0.060764
vt 0.924475 0.055898
vt 0.924474 0.055897
vt 0.924072 0.062403
vt 0.924071 0.062403
vt 0.942737 0.062566
vt 0.942738 0.062570
vt 0.924867 0.054967
vt 0.924867 0.054965
vt 0.924049 0.060994
vt 0.924048 0.060994
vt 0.940594 0.063924
vt 0.940595 0.063929
vt 0.925529 0.054252
vt 0.925528 0.054250
vt 0.938032 0.065057
vt 0.938033 0.065062
vt 0.926592 0.053816
vt 0.926592 0.053814
vt 0.935330 0.066060
vt 0.935331 0.066066
vt 0.928139 0.053650
vt 0.928139 0.053646
vt 0.932682 0.066876
vt 0.932683 0.066881
vt 0.930237 0.053774
vt 0.930237 0.053769
vt 0.930203 0.067319
vt 0.930204 0.067324
vt 0.932714 0.054260
vt 0.932715 0.054254
vt 0.928083 0.067663
vt 0.928083 0.067666
vt 0.935418 0.054686
vt 0.935418 0.054680
vt 0.926534 0.067664
vt 0.926534 0.067666
vt 0.938146 0.055137
vt 0.938146 0.055131
vt 0.925520 0.067337
vt 0.925519 0.067339
vt 0.940693 0.055692
vt 0.940693 0.055687
vt 0.924915 0.066892
vt 0.924915 0.066893
vt 0.942732 0.056528
vt 0.942733 0.056525
vt 0.924049 0.059591
vt 0.924048 0.059591
vt 0.923568 0.061807
vt 0.924037 0.066338
vt 0.922573 0.066759
vt 0.922213 0.062971
vt 0.910643 0.076161
vt 0.910436 0.070391
vt 0.911920 0.070383
vt 0.912066 0.075503
vt 0.922855 0.058849
vt 0.921701 0.060569
vt 0.911271 0.081963
vt 0.912591 0.080691
vt 0.922182 0.057146
vt 0.921217 0.059168
vt 0.912337 0.087336
vt 0.913470 0.085408
vt 0.921614 0.056153
vt 0.920784 0.058335
vt 0.913825 0.091636
vt 0.914628 0.089073
vt 0.916733 0.053677
vt 0.917707 0.053640
vt 0.917631 0.056439
vt 0.916857 0.056433
vt 0.921038 0.055449
vt 0.920323 0.057748
vt 0.915421 0.094173
vt 0.915792 0.091259
vt 0.915818 0.053906
vt 0.916122 0.056574
vt 0.920364 0.054805
vt 0.919770 0.057253
vt 0.916553 0.094971
vt 0.916639 0.092003
vt 0.914999 0.054299
vt 0.915458 0.056848
vt 0.919571 0.054260
vt 0.919124 0.056856
vt 0.917725 0.094405
vt 0.917525 0.091433
vt 0.914293 0.054814
vt 0.914880 0.057236
vt 0.918673 0.053860
vt 0.918400 0.056578
vt 0.919460 0.092204
vt 0.918810 0.089491
vt 0.913682 0.055406
vt 0.914389 0.057734
vt 0.921193 0.088219
vt 0.920175 0.086072
vt 0.913062 0.056289
vt 0.913913 0.058482
vt 0.922566 0.083068
vt 0.921321 0.081542
vt 0.912300 0.057859
vt 0.913356 0.059787
vt 0.923517 0.077393
vt 0.922133 0.076466
vt 0.911431 0.060670
vt 0.912716 0.062081
vt 0.924037 0.071671
vt 0.922558 0.071386
vt 0.910721 0.065093
vt 0.912154 0.065783
vt 0.920784 0.730557
vt 0.921217 0.731390
vt 0.920610 0.732698
vt 0.920259 0.731972
vt 0.914627 0.761295
vt 0.913470 0.757631
vt 0.914179 0.756108
vt 0.915091 0.759411
vt 0.916857 0.728655
vt 0.917631 0.728661
vt 0.917582 0.730448
vt 0.916929 0.730432
vt 0.920323 0.729970
vt 0.919869 0.731476
vt 0.915792 0.763481
vt 0.915998 0.761430
vt 0.916122 0.728796
vt 0.916307 0.730525
vt 0.919770 0.729476
vt 0.919397 0.731073
vt 0.916639 0.764225
vt 0.916700 0.762147
vt 0.915458 0.729070
vt 0.915742 0.730730
vt 0.919124 0.729078
vt 0.918846 0.730763
vt 0.917525 0.763655
vt 0.917439 0.761574
vt 0.914880 0.729459
vt 0.915250 0.731042
vt 0.918400 0.728800
vt 0.918232 0.730554
vt 0.918810 0.761713
vt 0.918457 0.759746
vt 0.914389 0.729956
vt 0.914835 0.731463
vt 0.920175 0.758294
vt 0.919555 0.756637
vt 0.913913 0.730704
vt 0.914446 0.732120
vt 0.921321 0.753764
vt 0.920509 0.752537
vt 0.913356 0.732009
vt 0.914013 0.733265
vt 0.922133 0.748688
vt 0.921203 0.747945
vt 0.912716 0.734303
vt 0.913527 0.735255
vt 0.922558 0.743608
vt 0.921573 0.743382
vt 0.912154 0.738005
vt 0.913091 0.738487
vt 0.922573 0.738981
vt 0.921613 0.739286
vt 0.911920 0.742605
vt 0.912910 0.742566
vt 0.922213 0.735193
vt 0.921355 0.735989
vt 0.912066 0.747726
vt 0.913029 0.747164
vt 0.921701 0.732791
vt 0.920979 0.733918
vt 0.912591 0.752914
vt 0.913465 0.751854
vt 0.916467 0.732129
vt 0.915993 0.732271
vt 0.919064 0.732559
vt 0.918600 0.732329
vt 0.916760 0.760059
vt 0.917358 0.759494
vt 0.915580 0.732508
vt 0.918083 0.732180
vt 0.918131 0.757750
vt 0.915236 0.732852
vt 0.917537 0.732102
vt 0.918985 0.754918
vt 0.914929 0.733418
vt 0.919748 0.751240
vt 0.914612 0.734414
vt 0.920327 0.747156
vt 0.914270 0.736136
vt 0.920648 0.743135
vt 0.913963 0.738934
vt 0.920721 0.739567
vt 0.913841 0.742494
vt 0.920568 0.736726
vt 0.913943 0.746547
vt 0.920321 0.734950
vt 0.914292 0.750712
vt 0.920060 0.733899
vt 0.914843 0.754513
vt 0.919785 0.733279
vt 0.915529 0.757493
vt 0.916989 0.732077
vt 0.919461 0.732872
vt 0.916197 0.759378
vt 0.914929 0.061196
vt 0.915236 0.060630
vt 0.915698 0.062472
vt 0.915469 0.062932
vt 0.919748 0.079017
vt 0.918985 0.082696
vt 0.918425 0.079861
vt 0.918943 0.076874
vt 0.914612 0.062192
vt 0.915271 0.063747
vt 0.920327 0.074934
vt 0.919362 0.073652
vt 0.914270 0.063914
vt 0.915097 0.065123
vt 0.920648 0.070913
vt 0.919614 0.070525
vt 0.913963 0.066712
vt 0.914942 0.067317
vt 0.920721 0.067345
vt 0.919713 0.067763
vt 0.913841 0.070272
vt 0.914890 0.070082
vt 0.920568 0.064504
vt 0.919680 0.065551
vt 0.913943 0.074325
vt 0.914972 0.073234
vt 0.920321 0.062728
vt 0.919581 0.064150
vt 0.914292 0.078490
vt 0.915213 0.076515
vt 0.920060 0.061677
vt 0.919428 0.063303
vt 0.914843 0.082290
vt 0.915560 0.079583
vt 0.919785 0.061056
vt 0.919225 0.062802
vt 0.915529 0.085271
vt 0.915966 0.082076
vt 0.916989 0.059855
vt 0.917537 0.059880
vt 0.917480 0.061993
vt 0.917063 0.061963
vt 0.919461 0.060650
vt 0.918967 0.062495
vt 0.916197 0.087156
vt 0.916406 0.083725
vt 0.916467 0.059907
vt 0.916664 0.061976
vt 0.919064 0.060337
vt 0.918653 0.062275
vt 0.916760 0.087837
vt 0.916859 0.084342
vt 0.915993 0.060049
vt 0.916296 0.062055
vt 0.918600 0.060107
vt 0.918293 0.062128
vt 0.917358 0.087271
vt 0.917346 0.083816
vt 0.915580 0.060286
vt 0.915972 0.062215
vt 0.918083 0.059958
vt 0.917896 0.062041
vt 0.918131 0.085528
vt 0.917879 0.082262
vt 0.918231 0.066986
vt 0.918177 0.066577
vt 0.916325 0.072270
vt 0.916452 0.073596
vt 0.918088 0.066335
vt 0.916616 0.074723
vt 0.917284 0.065999
vt 0.917094 0.065977
vt 0.917969 0.066195
vt 0.916803 0.075500
vt 0.916911 0.065971
vt 0.917823 0.066101
vt 0.917007 0.075798
vt 0.916743 0.065995
vt 0.917657 0.066044
vt 0.917227 0.075539
vt 0.916593 0.066061
vt 0.917475 0.066014
vt 0.917457 0.074803
vt 0.916467 0.066177
vt 0.917683 0.073717
vt 0.916365 0.066399
vt 0.917882 0.072426
vt 0.916288 0.066795
vt 0.918040 0.071072
vt 0.916232 0.067442
vt 0.918153 0.069771
vt 0.916200 0.068414
vt 0.918225 0.068610
vt 0.916204 0.069586
vt 0.918250 0.067641
vt 0.916244 0.070896
vt 0.925018 0.069208
vt 0.925602 0.068478
vt 0.927283 0.070622
vt 0.926844 0.071179
vt 0.939927 0.081250
vt 0.937895 0.082848
vt 0.936279 0.081846
vt 0.937835 0.080783
vt 0.926565 0.068011
vt 0.928010 0.070233
vt 0.935519 0.084450
vt 0.934369 0.082779
vt 0.928096 0.067752
vt 0.929147 0.069997
vt 0.932601 0.085503
vt 0.932302 0.083290
vt 0.930415 0.067692
vt 0.930806 0.069997
vt 0.929818 0.085503
vt 0.930358 0.083304
vt 0.933177 0.068316
vt 0.932737 0.070453
vt 0.927517 0.084907
vt 0.928711 0.082922
vt 0.936055 0.069960
vt 0.934778 0.071444
vt 0.926015 0.084294
vt 0.927599 0.082425
vt 0.938429 0.072318
vt 0.936720 0.072784
vt 0.925091 0.083607
vt 0.926903 0.081869
vt 0.940186 0.074176
vt 0.938249 0.074261
vt 0.924560 0.082747
vt 0.926505 0.081215
vt 0.941672 0.075867
vt 0.939317 0.075569
vt 0.924099 0.075896
vt 0.924160 0.074314
vt 0.926181 0.074967
vt 0.926133 0.076134
vt 0.924278 0.081683
vt 0.926291 0.080424
vt 0.942584 0.077044
vt 0.939991 0.076817
vt 0.924258 0.072799
vt 0.926259 0.073846
vt 0.924114 0.080423
vt 0.926161 0.079486
vt 0.942913 0.078123
vt 0.940206 0.077674
vt 0.924418 0.071409
vt 0.926386 0.072814
vt 0.924048 0.079007
vt 0.926104 0.078433
vt 0.942479 0.079077
vt 0.939802 0.078451
vt 0.924666 0.070198
vt 0.926578 0.071914
vt 0.924053 0.077480
vt 0.926102 0.077302
vt 0.941554 0.079852
vt 0.939111 0.079591
vt 0.929602 0.078518
vt 0.929759 0.078761
vt 0.938248 0.074264
vt 0.939316 0.075571
vt 0.935193 0.076299
vt 0.934523 0.075730
vt 0.929485 0.076062
vt 0.929470 0.076524
vt 0.929518 0.078211
vt 0.939990 0.076818
vt 0.935611 0.076812
vt 0.929512 0.075619
vt 0.929469 0.077844
vt 0.939820 0.077728
vt 0.935755 0.077251
vt 0.929559 0.075213
vt 0.929451 0.077431
vt 0.939438 0.078275
vt 0.935586 0.077649
vt 0.929632 0.074861
vt 0.929454 0.076986
vt 0.939110 0.079589
vt 0.935123 0.078053
vt 0.929736 0.074575
vt 0.937835 0.080780
vt 0.934442 0.078430
vt 0.929909 0.074371
vt 0.936278 0.081842
vt 0.933593 0.078763
vt 0.930198 0.074254
vt 0.932730 0.078951
vt 0.930647 0.074238
vt 0.931889 0.079057
vt 0.931290 0.074341
vt 0.931125 0.079107
vt 0.932047 0.074565
vt 0.930480 0.079065
vt 0.932876 0.074862
vt 0.930037 0.078944
vt 0.933723 0.075253
vt 0.926129 0.086779
vt 0.926129 0.086783
vt 0.924048 0.087603
vt 0.924048 0.087598
vt 0.934091 0.087849
vt 0.934090 0.087852
vt 0.932811 0.087174
vt 0.932812 0.087172
vt 0.930699 0.085880
vt 0.930699 0.085882
vt 0.929918 0.085531
vt 0.929918 0.085529
vt 0.927822 0.086185
vt 0.927822 0.086188
vt 0.935369 0.088527
vt 0.935369 0.088529
vt 0.931681 0.086557
vt 0.931681 0.086560
vt 0.929072 0.085653
vt 0.929072 0.085655
vt 0.390688 0.291809
vt 0.390688 0.289352
vt 0.391096 0.289260
vt 0.391254 0.291690
vt 0.393337 0.290236
vt 0.392517 0.288593
vt 0.395097 0.289754
vt 0.395445 0.290056
vt 0.385931 0.290056
vt 0.386279 0.289754
vt 0.388859 0.288593
vt 0.388039 0.290236
vt 0.390122 0.291690
vt 0.390281 0.289260
vt 0.392154 0.291125
vt 0.391725 0.289046
vt 0.389222 0.291125
vt 0.389651 0.289046
vt 0.394695 0.287174
vt 0.394311 0.288289
vt 0.393412 0.287997
vt 0.393564 0.286560
vt 0.390955 0.285655
vt 0.390964 0.287914
vt 0.389869 0.288136
vt 0.389706 0.286188
vt 0.392512 0.287860
vt 0.392582 0.285882
vt 0.388543 0.288529
vt 0.388012 0.286783
vt 0.391755 0.287887
vt 0.391801 0.285531
vt 0.395974 0.287852
vt 0.395753 0.288061
vt 0.386277 0.287982
vt 0.385932 0.287603
vt 0.933873 0.088567
vt 0.932341 0.088565
vt 0.932341 0.088563
vt 0.933873 0.088564
vt 0.928960 0.088565
vt 0.927833 0.088565
vt 0.927833 0.088563
vt 0.928960 0.088563
vt 0.926706 0.088566
vt 0.926706 0.088563
vt 0.925579 0.088566
vt 0.925579 0.088563
vt 0.930087 0.088565
vt 0.930087 0.088563
vt 0.924048 0.088567
vt 0.924048 0.088563
vt 0.931214 0.088565
vt 0.931214 0.088563
vt 0.926706 0.088560
vt 0.927833 0.088560
vt 0.925579 0.088560
vt 0.928960 0.088560
vt 0.930087 0.088559
vt 0.924048 0.088558
vt 0.931214 0.088559
vt 0.932341 0.088560
vt 0.933873 0.088560
vt 0.928960 0.088557
vt 0.930087 0.088557
vt 0.924048 0.088555
vt 0.925579 0.088557
vt 0.931214 0.088557
vt 0.932341 0.088557
vt 0.933873 0.088555
vt 0.927833 0.088557
vt 0.926706 0.088557
vt 0.929160 0.043466
vt 0.928718 0.043909
vt 0.926289 0.043909
vt 0.925847 0.043466
vt 0.925847 0.041038
vt 0.926289 0.040595
vt 0.928718 0.040595
vt 0.929160 0.041038
vt 0.928718 0.047222
vt 0.926289 0.047222
vt 0.925404 0.047222
vt 0.922976 0.047222
vt 0.922976 0.043909
vt 0.925404 0.043909
vt 0.928718 0.053849
vt 0.926289 0.053849
vt 0.926289 0.050536
vt 0.928718 0.050536
vt 0.929160 0.050093
vt 0.925847 0.050093
vt 0.925847 0.047665
vt 0.929160 0.047665
vt 0.932031 0.047222
vt 0.932031 0.043909
vt 0.932474 0.043909
vt 0.932474 0.047222
vt 0.925847 0.053849
vt 0.925847 0.050536
vt 0.929603 0.043909
vt 0.929603 0.047222
vt 0.920877 0.047222
vt 0.920877 0.040595
vt 0.921291 0.040595
vt 0.921291 0.047222
vt 0.921705 0.040595
vt 0.921705 0.047222
vt 0.922119 0.040595
vt 0.922119 0.047222
vt 0.922534 0.040595
vt 0.922534 0.047222
vt 0.922948 0.040595
vt 0.922948 0.047222
vt 0.923362 0.040595
vt 0.923362 0.047222
vt 0.923776 0.040595
vt 0.923776 0.047222
vt 0.924190 0.040595
vt 0.924190 0.047222
vt 0.924604 0.040595
vt 0.924604 0.047222
vt 0.925019 0.040595
vt 0.925019 0.047222
vt 0.925433 0.040595
vt 0.925433 0.047222
vt 0.925847 0.040595
vt 0.925847 0.047222
vt 0.926261 0.040595
vt 0.926261 0.047222
vt 0.926675 0.040595
vt 0.926675 0.047222
vt 0.927089 0.040595
vt 0.927089 0.047222
vt 0.927504 0.040595
vt 0.927504 0.047222
vt 0.927918 0.040595
vt 0.927918 0.047222
vt 0.928332 0.040595
vt 0.928332 0.047222
vt 0.928746 0.040595
vt 0.928746 0.047222
vt 0.929160 0.040595
vt 0.929160 0.047222
vt 0.929574 0.040595
vt 0.929574 0.047222
vt 0.929989 0.040595
vt 0.929989 0.047222
vt 0.930403 0.040595
vt 0.930403 0.047222
vt 0.930817 0.040595
vt 0.930817 0.047222
vt 0.931231 0.040595
vt 0.931231 0.047222
vt 0.931645 0.040595
vt 0.931645 0.047222
vt 0.932060 0.040595
vt 0.932060 0.047222
vt 0.932474 0.040595
vt 0.932888 0.040595
vt 0.932888 0.047222
vt 0.933302 0.040595
vt 0.933302 0.047222
vt 0.930196 0.047416
vt 0.930817 0.047355
vt 0.931438 0.047416
vt 0.932034 0.047597
vt 0.932584 0.047891
vt 0.933066 0.048286
vt 0.933462 0.048768
vt 0.933756 0.049318
vt 0.933937 0.049915
vt 0.933998 0.050536
vt 0.933937 0.051156
vt 0.933756 0.051753
vt 0.933462 0.052303
vt 0.933066 0.052785
vt 0.932584 0.053180
vt 0.932034 0.053474
vt 0.931438 0.053655
vt 0.930817 0.053717
vt 0.930196 0.053655
vt 0.929600 0.053474
vt 0.929050 0.053180
vt 0.928568 0.052785
vt 0.928172 0.052303
vt 0.927878 0.051753
vt 0.927697 0.051156
vt 0.927636 0.050536
vt 0.927697 0.049915
vt 0.927878 0.049318
vt 0.928172 0.048768
vt 0.928568 0.048286
vt 0.929050 0.047891
vt 0.929600 0.047597
vt 0.933716 0.040595
vt 0.933716 0.047222
vt 0.934130 0.040595
vt 0.934130 0.047222
vt 0.924190 0.047355
vt 0.923570 0.047416
vt 0.922973 0.047597
vt 0.922423 0.047891
vt 0.921941 0.048286
vt 0.921545 0.048768
vt 0.921251 0.049318
vt 0.921071 0.049915
vt 0.921009 0.050536
vt 0.921071 0.051156
vt 0.921251 0.051753
vt 0.921545 0.052303
vt 0.921941 0.052785
vt 0.922423 0.053180
vt 0.922973 0.053474
vt 0.923570 0.053655
vt 0.924190 0.053717
vt 0.924811 0.053655
vt 0.925407 0.053474
vt 0.925957 0.053180
vt 0.926439 0.052785
vt 0.926835 0.052303
vt 0.927129 0.051753
vt 0.927310 0.051156
vt 0.927371 0.050536
vt 0.927310 0.049915
vt 0.927129 0.049318
vt 0.926835 0.048768
vt 0.926439 0.048286
vt 0.925957 0.047891
vt 0.925407 0.047597
vt 0.924811 0.047416
vt 0.946864 0.038179
vt 0.949997 0.038179
vt 0.949997 0.041312
vt 0.946864 0.041312
vt 0.949997 0.044445
vt 0.946864 0.044445
vt 0.949997 0.047577
vt 0.946864 0.047577
vt 0.949997 0.050710
vt 0.946864 0.050710
vt 0.943731 0.044445
vt 0.943731 0.047577
vt 0.953129 0.044445
vt 0.953129 0.047577
vt 0.878391 0.052778
vt 0.875258 0.052778
vt 0.952320 0.047577
vt 0.952320 0.047577
vt 0.950806 0.047577
vt 0.950806 0.047577
vt 0.489350 0.484988
vt 0.489350 0.459457
s 1
usemtl Material.001
f 30/1/1 29/2/1 61/3/1 62/4/1
f 17/5/1 16/6/1 48/7/1 49/8/1
f 4/9/1 3/10/1 35/11/1 36/12/1
f 31/13/1 30/1/1 62/4/1 63/14/1
f 18/15/1 17/5/1 49/8/1 50/16/1
f 5/17/1 4/9/1 36/12/1 37/18/1
f 32/19/2 31/13/1 63/14/1 64/20/2
f 19/21/1 18/15/1 50/16/1 51/22/1
f 6/23/3 5/17/1 37/18/1 38/24/3
f 1/25/3 32/19/2 64/20/2 33/26/3
f 20/27/1 19/21/1 51/22/1 52/28/1
f 7/29/1 6/23/3 38/24/3 39/30/1
f 21/31/1 20/27/1 52/28/1 53/32/1
f 8/33/2 7/29/1 39/30/1 40/34/2
f 22/35/1 21/31/1 53/32/1 54/36/1
f 9/37/2 8/33/2 40/34/2 41/38/2
f 23/39/1 22/35/1 54/36/1 55/40/1
f 10/41/1 9/37/2 41/38/2 42/42/1
f 24/43/1 23/39/1 55/40/1 56/44/1
f 11/45/1 10/41/1 42/42/1 43/46/1
f 25/47/2 24/43/1 56/44/1 57/48/2
f 12/49/1 11/45/1 43/46/1 44/50/1
f 26/51/2 25/47/2 57/48/2 58/52/2
f 13/53/1 12/49/1 44/50/1 45/54/1
f 27/55/1 26/51/2 58/52/2 59/56/1
f 14/57/1 13/53/1 45/54/1 46/58/1
f 28/59/3 27/55/1 59/56/1 60/60/3
f 15/61/1 14/57/1 46/58/1 47/62/1
f 2/63/2 1/25/3 33/26/3 34/64/2
f 29/2/1 28/59/3 60/60/3 61/3/1
f 16/6/1 15/61/1 47/62/1 48/7/1
f 3/10/1 2/63/2 34/64/2 35/11/1
f 57/65/4 56/66/5 88/67/6 89/68/7
f 44/69/8 43/70/9 75/71/10 76/72/11
f 58/73/12 57/65/4 89/68/7 90/74/13
f 45/75/14 44/69/8 76/72/11 77/76/15
f 59/77/16 58/73/12 90/74/13 91/78/17
f 46/79/18 45/75/14 77/76/15 78/80/19
f 60/81/20 59/77/16 91/78/17 92/82/21
f 47/83/22 46/79/18 78/80/19 79/84/23
f 34/85/24 33/86/25 65/87/26 66/88/27
f 61/89/28 60/81/20 92/82/21 93/90/29
f 48/91/30 47/83/22 79/84/23 80/92/31
f 35/93/32 34/85/24 66/88/27 67/94/33
f 62/95/34 61/89/28 93/90/29 94/96/35
f 49/97/36 48/91/30 80/92/31 81/98/37
f 36/99/38 35/93/32 67/94/33 68/100/39
f 63/101/40 62/95/34 94/96/35 95/102/41
f 50/103/42 49/97/43 81/98/44 82/104/45
f 37/105/46 36/99/38 68/100/39 69/106/47
f 64/107/48 63/101/40 95/102/41 96/108/49
f 51/109/50 50/103/42 82/104/45 83/110/51
f 38/111/52 37/105/46 69/106/47 70/112/53
f 33/86/25 64/107/48 96/108/49 65/87/26
f 52/113/54 51/109/50 83/110/51 84/114/55
f 39/115/56 38/111/52 70/112/53 71/116/57
f 53/117/58 52/113/54 84/114/55 85/118/59
f 40/119/60 39/115/56 71/116/57 72/120/61
f 54/121/62 53/117/58 85/118/59 86/122/63
f 41/123/64 40/119/60 72/120/61 73/124/65
f 55/125/66 54/121/62 86/122/63 87/126/67
f 42/127/68 41/123/64 73/124/65 74/128/69
f 56/66/5 55/125/66 87/126/67 88/67/6
f 43/70/9 42/127/68 74/128/69 75/71/10
f 92/129/21 91/130/17 123/131/70 124/132/71
f 79/133/23 78/134/19 110/135/72 111/136/73
f 66/137/27 65/138/26 97/139/74 98/140/75
f 93/141/29 92/129/21 124/132/71 125/142/76
f 80/143/31 79/133/23 111/136/73 112/144/77
f 67/145/33 66/137/27 98/140/75 99/146/78
f 94/147/35 93/141/29 125/142/76 126/148/79
f 81/149/37 80/143/31 112/144/77 113/150/80
f 68/151/39 67/145/33 99/146/78 100/152/81
f 95/153/41 94/147/35 126/148/79 127/154/82
f 82/155/45 81/149/44 113/150/83 114/156/84
f 69/157/47 68/151/39 100/152/81 101/158/85
f 96/159/49 95/153/41 127/154/82 128/160/86
f 83/161/51 82/155/45 114/156/84 115/162/87
f 70/163/53 69/157/47 101/158/85 102/164/88
f 65/138/26 96/159/49 128/160/86 97/139/74
f 84/165/55 83/161/51 115/162/87 116/166/89
f 71/167/57 70/163/53 102/164/88 103/168/90
f 85/169/59 84/165/55 116/166/89 117/170/91
f 72/171/61 71/167/57 103/168/90 104/172/92
f 86/173/63 85/169/59 117/170/91 118/174/93
f 73/175/65 72/171/61 104/172/92 105/176/94
f 87/177/67 86/173/63 118/174/93 119/178/95
f 74/179/69 73/175/65 105/176/94 106/180/96
f 88/181/6 87/177/67 119/178/95 120/182/97
f 75/183/10 74/179/69 106/180/96 107/184/98
f 89/185/7 88/181/6 120/182/97 121/186/99
f 76/187/11 75/183/10 107/184/98 108/188/100
f 90/189/13 89/185/7 121/186/99 122/190/101
f 77/191/15 76/187/11 108/188/100 109/192/102
f 91/130/17 90/189/13 122/190/101 123/131/70
f 78/134/19 77/191/15 109/192/102 110/135/72
f 100/152/81 99/146/78 131/193/103 132/194/104
f 127/154/82 126/148/79 158/195/105 159/196/106
f 114/156/84 113/150/83 145/197/107 146/198/108
f 101/158/85 100/152/81 132/194/104 133/199/109
f 128/160/86 127/154/82 159/196/106 160/200/110
f 115/162/87 114/156/84 146/198/108 147/201/111
f 102/164/88 101/158/85 133/199/109 134/202/112
f 97/139/74 128/160/86 160/200/110 129/203/113
f 116/166/89 115/162/87 147/201/111 148/204/114
f 103/168/90 102/164/88 134/202/112 135/205/115
f 117/170/91 116/166/89 148/204/114 149/206/116
f 104/172/92 103/168/90 135/205/115 136/207/117
f 118/174/93 117/170/91 149/206/116 150/208/118
f 105/176/94 104/172/92 136/207/117 137/209/119
f 119/178/95 118/174/93 150/208/118 151/210/120
f 106/180/96 105/176/94 137/209/119 138/211/121
f 120/182/97 119/178/95 151/210/120 152/212/122
f 107/184/98 106/180/96 138/211/121 139/213/123
f 121/186/99 120/182/97 152/212/122 153/214/124
f 108/188/100 107/184/98 139/213/123 140/215/125
f 122/190/101 121/186/99 153/214/124 154/216/126
f 109/192/102 108/188/100 140/215/125 141/217/127
f 123/131/70 122/190/101 154/216/126 155/218/128
f 110/135/72 109/192/102 141/217/127 142/219/129
f 124/132/71 123/131/70 155/218/128 156/220/130
f 111/136/73 110/135/72 142/219/129 143/221/131
f 98/140/75 97/139/74 129/203/113 130/222/132
f 125/142/76 124/132/71 156/220/130 157/223/133
f 112/144/77 111/136/73 143/221/131 144/224/134
f 99/146/78 98/140/75 130/222/132 131/193/103
f 126/148/79 125/142/76 157/223/133 158/195/105
f 113/150/80 112/144/77 144/224/134 145/197/135
f 135/225/115 134/226/112 166/227/136 167/228/137
f 149/229/116 148/230/114 180/231/138 181/232/139
f 136/233/117 135/225/115 167/228/137 168/234/140
f 150/235/118 149/229/116 181/232/139 182/236/141
f 137/237/119 136/233/117 168/234/140 169/238/142
f 151/239/120 150/235/118 182/236/141 183/240/143
f 138/241/121 137/237/119 169/238/142 170/242/144
f 152/243/122 151/239/120 183/240/143 184/244/145
f 139/245/123 138/241/121 170/242/144 171/246/146
f 153/247/124 152/243/122 184/244/145 185/248/147
f 140/249/125 139/245/123 171/246/146 172/250/148
f 154/251/126 153/247/124 185/248/147 186/252/149
f 141/253/127 140/249/125 172/250/148 173/254/150
f 155/255/128 154/251/126 186/252/149 187/256/151
f 142/257/129 141/253/127 173/254/150 174/258/152
f 156/259/130 155/255/128 187/256/151 188/260/153
f 143/261/131 142/257/129 174/258/152 175/262/154
f 130/263/132 129/264/113 161/265/155 162/266/156
f 157/267/133 156/259/130 188/260/153 189/268/157
f 144/269/134 143/261/131 175/262/154 176/270/158
f 131/271/103 130/263/132 162/266/156 163/272/159
f 158/273/105 157/267/133 189/268/157 190/274/160
f 145/275/135 144/269/134 176/270/158 177/276/161
f 132/277/104 131/271/103 163/272/159 164/278/162
f 159/279/106 158/273/105 190/274/160 191/280/163
f 146/281/108 145/275/107 177/276/161 178/282/164
f 133/283/109 132/277/104 164/278/162 165/284/165
f 160/285/110 159/279/106 191/280/163 192/286/166
f 147/287/111 146/281/108 178/282/164 179/288/167
f 134/226/112 133/283/109 165/284/165 166/227/136
f 129/264/113 160/285/110 192/286/166 161/265/155
f 148/230/114 147/287/111 179/288/167 180/231/138
f 187/256/168 186/252/169 218/289/170 219/290/171
f 174/258/172 173/254/173 205/291/174 206/292/175
f 188/260/153 187/256/168 219/290/171 220/293/176
f 175/262/154 174/258/172 206/292/175 207/294/177
f 162/266/156 161/265/155 193/295/178 194/296/179
f 189/268/157 188/260/153 220/293/176 221/297/180
f 176/270/158 175/262/154 207/294/177 208/298/181
f 163/272/159 162/266/156 194/296/179 195/299/182
f 190/274/160 189/268/157 221/297/180 222/300/183
f 177/276/161 176/270/158 208/298/181 209/301/184
f 164/278/162 163/272/159 195/299/182 196/302/185
f 191/280/163 190/274/160 222/300/183 223/303/186
f 178/282/164 177/276/161 209/301/184 210/304/187
f 165/284/165 164/278/162 196/302/185 197/305/188
f 192/286/166 191/280/163 223/303/186 224/306/189
f 179/288/190 178/282/164 210/304/187 211/307/191
f 166/227/136 165/284/165 197/305/188 198/308/192
f 161/265/155 192/286/166 224/306/189 193/295/178
f 180/231/193 179/288/190 211/307/191 212/309/194
f 167/228/195 166/227/136 198/308/192 199/310/196
f 181/232/197 180/231/193 212/309/194 213/311/198
f 168/234/199 167/228/195 199/310/196 200/312/200
f 182/236/201 181/232/197 213/311/198 214/313/202
f 169/238/203 168/234/199 200/312/200 201/314/204
f 183/240/205 182/236/201 214/313/202 215/315/206
f 170/242/207 169/238/203 201/314/204 202/316/208
f 184/244/209 183/240/205 215/315/206 216/317/210
f 171/246/211 170/242/207 202/316/208 203/318/212
f 185/248/213 184/244/209 216/317/210 217/319/214
f 172/250/215 171/246/211 203/318/212 204/320/216
f 186/252/169 185/248/213 217/319/214 218/289/170
f 173/254/173 172/250/215 204/320/216 205/291/174
f 194/296/179 193/295/178 224/306/189 223/303/186 222/300/183 221/297/180 220/293/176 219/290/171 218/289/170 217/319/214 216/317/210 215/315/206 214/313/202 213/311/198 212/309/194 211/307/191 210/304/187 209/301/184 208/298/181 207/294/177 206/292/175 205/291/174 204/320/216 203/318/212 202/316/208 201/314/204 200/312/200 199/310/196 198/308/192 197/305/188 196/302/185 195/299/182
f 38/321/217 39/322/218 231/323/219 230/324/220
f 52/325/221 53/326/222 245/327/223 244/328/224
f 39/322/218 40/329/225 232/330/226 231/323/219
f 53/326/222 54/331/227 246/332/228 245/327/223
f 40/329/225 41/333/229 233/334/230 232/330/226
f 54/331/227 55/335/231 247/336/232 246/332/228
f 41/333/229 42/337/233 234/338/234 233/334/230
f 55/335/231 56/339/235 248/340/236 247/336/232
f 42/337/233 43/341/237 235/342/238 234/338/234
f 56/339/235 57/343/239 249/344/240 248/340/236
f 43/341/237 44/345/241 236/346/242 235/342/238
f 57/343/239 58/347/243 250/348/244 249/344/240
f 44/345/241 45/349/245 237/350/246 236/346/242
f 58/347/243 59/351/247 251/352/248 250/348/244
f 45/349/245 46/353/249 238/354/250 237/350/246
f 59/351/247 60/355/251 252/356/252 251/352/248
f 46/353/249 47/357/253 239/358/254 238/354/250
f 33/359/255 34/360/256 226/361/257 225/362/255
f 60/355/251 61/363/258 253/364/259 252/356/252
f 47/357/253 48/365/260 240/366/261 239/358/254
f 34/360/256 35/367/262 227/368/263 226/361/257
f 61/363/258 62/369/264 254/370/265 253/364/259
f 48/365/260 49/371/266 241/372/266 240/366/261
f 35/367/262 36/373/267 228/374/268 227/368/263
f 62/369/264 63/375/269 255/376/270 254/370/265
f 49/371/266 50/377/271 242/378/272 241/372/266
f 36/373/267 37/379/273 229/380/274 228/374/268
f 63/375/269 64/381/275 256/382/276 255/376/270
f 50/377/271 51/383/277 243/384/278 242/378/272
f 37/379/273 38/321/217 230/324/220 229/380/274
f 64/381/275 33/359/255 225/362/255 256/382/276
f 51/383/277 52/325/221 244/328/224 243/384/278
f 251/352/279 252/356/280 284/385/281 283/386/282
f 238/387/283 239/388/284 271/389/285 270/390/286
f 225/362/287 226/361/288 258/391/289 257/392/287
f 252/356/280 253/364/290 285/393/291 284/385/281
f 239/388/284 240/394/292 272/395/293 271/389/285
f 226/361/288 227/368/294 259/396/295 258/391/289
f 253/364/290 254/370/296 286/397/297 285/393/291
f 240/394/292 241/398/298 273/399/299 272/395/293
f 227/368/294 228/374/300 260/400/301 259/396/295
f 254/370/296 255/376/302 287/401/303 286/397/297
f 241/398/298 242/402/304 274/403/305 273/399/299
f 228/374/300 229/380/306 261/404/307 260/400/301
f 255/376/302 256/382/308 288/405/309 287/401/303
f 242/402/304 243/406/310 275/407/311 274/403/305
f 229/380/306 230/324/312 262/408/313 261/404/307
f 256/382/308 225/362/287 257/392/287 288/405/309
f 243/406/310 244/409/314 276/410/315 275/407/311
f 230/324/312 231/323/316 263/411/317 262/408/313
f 244/409/314 245/412/318 277/413/319 276/410/315
f 231/323/316 232/330/320 264/414/321 263/411/317
f 245/412/318 246/332/322 278/415/323 277/413/319
f 232/330/320 233/334/324 265/416/325 264/414/321
f 246/332/322 247/336/326 279/417/327 278/415/323
f 233/334/324 234/338/328 266/418/329 265/416/325
f 247/336/326 248/340/330 280/419/331 279/417/327
f 234/338/328 235/342/332 267/420/333 266/418/329
f 248/340/330 249/344/334 281/421/335 280/419/331
f 235/342/332 236/346/336 268/422/337 267/420/333
f 249/344/334 250/348/338 282/423/339 281/421/335
f 236/346/336 237/350/340 269/424/341 268/422/337
f 250/348/338 251/352/279 283/386/282 282/423/339
f 237/350/340 238/387/283 270/390/286 269/424/341
f 258/391/289 259/396/295 260/400/301 261/404/307 262/408/313 263/411/1 264/414/1 265/416/1 266/418/1 267/420/1 268/422/1 269/424/1 270/390/1 271/389/1 272/395/293 273/399/299 274/403/305 275/407/1 276/410/1 277/413/1 278/415/1 279/417/1 280/419/1 281/421/1 282/423/1 283/386/1 284/385/281 285/393/291 286/397/297 287/401/303 288/405/309 257/392/1
f 238/425/1 290/426/1 289/427/342 237/428/2
f 245/429/342 297/430/2 296/431/1 244/432/1
f 242/433/1 294/434/1 293/435/1 241/436/1
f 239/437/1 291/438/1 290/426/1 238/425/1
f 246/439/342 298/440/2 297/430/342 245/429/1
f 243/441/1 295/442/1 294/434/1 242/433/1
f 240/443/1 292/444/1 291/438/1 239/437/1
f 244/432/1 296/431/1 295/442/1 243/441/1
f 241/436/1 293/435/1 292/444/1 240/443/1
f 309/445/343 303/446/343 302/447/344 308/448/345
f 311/449/346 300/450/347 299/451/348 310/452/348
f 313/453/349 307/454/349 306/455/350 312/456/351
f 314/457/352 304/458/353 303/446/354 309/445/354
f 315/459/355 301/460/356 300/450/347 311/449/346
f 316/461/357 305/462/358 304/458/353 314/457/352
f 308/448/345 302/447/344 301/460/356 315/459/355
f 312/456/351 306/455/350 305/462/358 316/461/357
f 296/463/359 312/464/360 316/465/361 295/466/362
f 292/467/363 308/468/364 315/469/365 291/470/366
f 295/466/362 316/465/361 314/471/367 294/472/368
f 291/470/366 315/469/365 311/473/369 290/474/370
f 294/472/368 314/471/367 309/475/371 293/476/371
f 297/477/372 313/478/372 312/464/360 296/463/359
f 290/474/370 311/473/369 310/479/373 289/480/373
f 293/476/374 309/475/374 308/468/364 292/467/363
f 310/481/3 311/482/375 320/483/3 319/484/376
f 309/485/377 314/486/1 323/487/1 318/488/342
f 314/486/1 316/489/1 325/490/1 323/487/1
f 316/489/1 312/491/1 321/492/3 325/490/1
f 308/493/1 309/485/377 318/488/342 317/494/376
f 312/491/1 313/495/376 322/496/376 321/492/3
f 311/482/375 315/497/1 324/498/375 320/483/3
f 315/497/1 308/493/1 317/494/376 324/498/375
f 323/487/1 325/490/1 334/499/1 332/500/376
f 325/490/1 321/492/3 330/501/3 334/499/1
f 317/494/376 318/488/342 327/502/375 326/503/376
f 321/492/3 322/496/376 331/504/376 330/501/3
f 320/483/3 324/498/375 333/505/375 329/506/376
f 324/498/375 317/494/376 326/503/376 333/505/375
f 319/484/376 320/483/3 329/506/376 328/507/376
f 318/488/342 323/487/1 332/500/376 327/502/375
f 326/503/376 327/502/375 336/508/375 335/509/1
f 330/501/3 331/504/376 340/510/378 339/511/377
f 329/506/376 333/505/375 342/512/1 338/513/1
f 333/505/375 326/503/376 335/509/1 342/512/1
f 328/507/376 329/506/376 338/513/1 337/514/376
f 327/502/375 332/500/376 341/515/1 336/508/375
f 332/500/376 334/499/1 343/516/1 341/515/1
f 334/499/1 330/501/3 339/511/377 343/516/1
f 352/517/376 353/518/376 354/519/376 355/520/376 346/521/376 347/522/376 344/523/376 345/524/376
f 356/525/379 359/526/379 354/519/379 353/518/379
f 358/527/1 351/528/1 346/529/1 355/530/1
f 344/531/380 347/532/380 350/533/380 349/534/380
f 348/535/342 349/534/342 350/533/342 351/536/342 358/537/342 359/526/342 356/525/342 357/538/342
f 348/539/381 345/540/381 344/541/381 349/542/381
f 346/543/382 351/544/382 350/533/382 347/532/382
f 352/545/383 357/546/383 356/525/383 353/518/383
f 358/527/384 355/530/384 354/519/384 359/526/384
f 348/539/385 357/546/385 352/545/385 345/540/385
f 360/547/342 361/548/342 363/549/386 362/550/386
f 362/550/386 363/549/386 365/551/387 364/552/387
f 364/552/387 365/551/387 367/553/388 366/554/388
f 366/554/388 367/553/388 369/555/389 368/556/389
f 368/556/389 369/555/389 371/557/390 370/558/390
f 370/558/390 371/557/390 373/559/391 372/560/391
f 372/560/391 373/559/391 375/561/392 374/562/392
f 374/562/392 375/561/392 377/563/379 376/564/379
f 376/564/379 377/563/379 379/565/393 378/566/393
f 378/566/393 379/565/393 381/567/394 380/568/394
f 380/568/394 381/567/394 383/569/395 382/570/395
f 382/570/395 383/569/395 385/571/396 384/572/396
f 384/572/396 385/571/396 387/573/397 386/574/397
f 386/574/397 387/573/397 389/575/398 388/576/398
f 388/576/398 389/575/398 391/577/399 390/578/399
f 390/578/399 391/577/399 393/579/376 392/580/376
f 392/580/376 393/579/376 395/581/400 394/582/400
f 394/582/400 395/581/400 397/583/401 396/584/401
f 396/584/401 397/583/401 399/585/402 398/586/402
f 398/586/402 399/585/402 401/587/403 400/588/403
f 400/588/403 401/587/403 403/589/404 402/590/404
f 402/590/404 403/589/404 405/591/405 404/592/405
f 404/592/405 405/591/405 407/593/406 406/594/406
f 406/594/406 407/593/406 409/595/380 408/596/380
f 408/596/380 409/595/380 411/597/407 410/598/407
f 410/598/407 411/597/407 413/599/408 412/600/408
f 412/600/408 413/599/408 415/601/409 414/602/409
f 414/602/409 415/601/409 417/603/410 416/542/410
f 416/542/410 417/603/410 419/604/411 418/605/411
f 418/605/411 419/604/411 421/606/412 420/607/412
f 363/608/1 361/609/1 423/610/1 421/611/1 419/612/1 417/613/1 415/614/1 413/615/1 411/616/1 409/617/1 407/618/1 405/619/1 403/620/1 401/621/1 399/622/1 397/623/1 395/624/1 393/625/1 391/626/1 389/627/1 387/628/1 385/629/1 383/630/1 381/631/1 379/632/1 377/633/1 375/634/1 373/635/1 371/636/1 369/637/1 367/638/1 365/639/1
f 420/607/412 421/606/412 423/640/413 422/641/413
f 422/641/413 423/640/413 361/642/342 360/643/342
f 360/644/385 362/645/385 364/646/385 366/647/385 368/648/385 370/649/385 372/650/385 374/651/385 376/652/385 378/653/385 380/654/385 382/655/385 384/656/385 386/657/385 388/658/385 390/659/385 392/660/385 394/661/385 396/662/385 398/663/385 400/664/385 402/665/385 404/666/385 406/667/385 408/668/385 410/669/385 412/670/385 414/671/385 416/672/385 418/673/385 420/674/385 422/675/385
s 0
f 424/676/380 425/677/380 427/678/380 426/679/380
f 426/679/342 427/678/342 431/680/342 430/681/342
f 430/681/379 431/680/379 429/682/379 428/683/379
f 428/683/376 429/682/376 425/684/376 424/685/376
f 426/686/385 430/681/385 428/683/385 424/687/385
f 431/680/1 427/688/1 425/689/1 429/682/1
f 435/680/1 433/688/1 432/689/1 434/682/1
f 439/680/385 438/682/385 436/689/385 437/688/385
f 434/682/379 438/682/379 439/680/379 435/680/379
f 433/688/380 437/688/380 436/689/380 432/689/380
f 438/682/385 449/682/385 453/689/385 436/689/385
f 437/690/414 446/690/414 447/691/414 439/691/414
f 465/689/376 443/689/376 442/682/376 464/682/376
f 434/682/379 450/682/379 449/682/379 438/682/379
f 461/689/380 443/689/380 465/689/380 467/689/380
f 436/689/380 453/689/380 454/689/380 432/689/380
f 445/691/342 447/691/342 446/690/342 444/690/342
f 435/691/415 445/691/415 444/690/415 433/690/415
f 439/691/379 447/691/379 445/691/379 435/691/379
f 433/690/380 444/690/380 446/690/380 437/690/380
f 441/692/380 469/692/380 471/693/380 463/693/380
f 432/689/1 454/689/1 450/682/1 434/682/1
f 466/682/379 464/682/379 442/682/379 460/682/379
f 455/689/380 454/689/380 453/689/380 452/689/380
f 451/682/1 450/682/1 454/689/1 455/689/1
f 452/689/376 456/689/376 458/682/376 448/682/376
f 448/682/379 449/682/379 450/682/379 451/682/379
f 460/682/385 442/682/385 443/689/385 461/689/385
f 456/689/385 457/689/385 459/682/385 458/682/385
f 448/682/379 458/682/379 459/682/379 449/682/379
f 453/689/380 457/689/380 456/689/380 452/689/380
f 449/682/342 459/682/342 457/689/342 453/689/342
f 448/682/385 460/682/385 461/689/385 452/689/385
f 451/682/379 466/682/379 460/682/379 448/682/379
f 455/689/1 467/689/1 466/682/1 451/682/1
f 452/689/380 461/689/380 467/689/380 455/689/380
f 441/692/1 465/689/1 464/682/1 440/694/1
f 440/694/1 464/682/1 466/682/1 462/695/1
f 463/693/1 467/689/1 465/689/1 441/692/1
f 462/695/1 466/682/1 467/689/1 463/693/1
f 471/693/1 469/692/1 468/694/1 470/695/1
f 440/694/376 468/694/376 469/692/376 441/692/376
f 463/693/416 471/693/416 470/695/416 462/695/416
f 462/695/379 470/695/379 468/694/379 440/694/379
f 473/696/379 472/697/379 474/697/379 475/696/379
f 477/696/380 479/696/380 478/697/380 476/697/380
f 472/697/376 476/697/376 478/697/376 474/697/376
f 473/696/1 477/696/1 476/697/1 472/697/1
f 475/696/342 479/696/342 477/696/342 473/696/342
f 474/697/385 478/697/385 479/696/385 475/696/385
